<svg width="14" height="14" viewBox="0 0 14 14" fill="none" xmlns="http://www.w3.org/2000/svg">
<g id="arrowup">
<path id="Vector" d="M6.83825 7.82694L10.5231 3.99401C10.6243 3.88847 10.7597 3.83041 10.904 3.83041C11.0484 3.83041 11.1836 3.88847 11.285 3.99401L11.6077 4.32987C11.7092 4.43524 11.7651 4.5761 11.7651 4.72621C11.7651 4.87631 11.7092 5.017 11.6077 5.12246L7.22055 9.68617C7.11885 9.79205 6.98295 9.85002 6.83849 9.84961C6.69339 9.85002 6.55766 9.79213 6.45588 9.68617L2.07297 5.12671C1.97143 5.02125 1.91553 4.88056 1.91553 4.73037C1.91553 4.58027 1.97143 4.43958 2.07297 4.33404L2.39568 3.99826C2.60573 3.77976 2.94766 3.77976 3.15763 3.99826L6.83825 7.82694Z" fill="#03203F"/>
</g>
</svg>
