<svg width="1011" height="503" viewBox="0 0 1011 503" fill="none" xmlns="http://www.w3.org/2000/svg">
<g clip-path="url(#clip0_29_13598)">
<g opacity="0.6">
<path d="M998.461 101.445C986.224 89.2176 971.267 84.2359 954.347 84.3869C953.742 86.3493 956.915 87.708 955.404 89.9724C951.023 90.2743 949.21 88.7647 952.534 82.7263C943.469 89.2176 935.16 85.4436 927.304 86.1984C926.246 86.3493 925.038 86.0474 924.736 84.9907C922.318 76.084 915.369 79.2542 909.779 79.7071C907.06 80.009 904.643 79.1033 902.225 79.1033C897.542 79.1033 898.146 73.2158 894.369 72.9139C888.629 72.461 883.341 70.6495 877.751 69.5927C873.823 68.8379 867.478 70.1966 867.176 72.7629C866.42 80.6129 861.888 77.2917 858.111 77.2917C853.881 77.1408 849.349 74.7254 845.27 76.6879C839.529 79.4052 837.263 78.6504 837.565 72.31C837.716 68.536 835.903 66.7245 833.184 66.2716C827.594 65.2149 821.853 63.1015 816.263 67.1774C814.299 68.536 811.126 70.1966 809.163 66.5735C808.407 65.2149 807.048 65.6678 805.839 65.6678C796.019 66.4226 785.897 62.7995 776.53 68.0831C776.228 68.2341 775.624 67.7812 774.415 67.4793C779.854 63.7053 784.839 60.3842 790.429 57.9688C792.091 57.365 794.206 56.9121 794.206 54.6477C794.206 52.3833 792.091 51.7794 790.429 51.1756C785.897 49.515 781.365 47.4016 776.681 46.4958C773.66 45.892 772.3 44.3824 771.242 41.967C770.789 41.967 770.336 41.816 769.883 41.816C768.674 41.967 767.617 42.118 766.408 42.2689C764.142 43.0237 761.725 43.7785 759.459 44.5333C758.703 45.59 757.797 46.7977 757.041 47.8545C755.984 49.8169 754.171 49.8169 752.358 49.9679C743.293 50.7227 734.531 52.6852 725.769 55.1006C722.445 56.0063 719.726 56.7611 718.668 60.5351C717.762 63.7053 715.344 64.913 712.172 64.762C709.755 64.6111 707.337 64.4601 704.92 64.3091C703.409 64.3091 701.445 64.0072 700.69 65.9697C700.086 67.6303 701.143 69.1399 702.352 70.1966C704.165 72.0081 706.28 73.5177 708.395 75.3292C709.755 76.386 710.661 77.7446 709.604 79.5561C708.999 80.6129 708.093 81.6696 706.884 81.6696C704.769 81.5186 705.676 79.5561 705.222 78.3485C704.165 75.6312 702.201 73.6687 699.633 72.31C697.517 71.2533 695.251 70.8004 693.287 72.0081C690.87 73.3668 692.683 75.6312 692.683 77.4427C692.834 77.7446 692.985 77.8956 693.287 78.1975C692.834 78.1975 692.381 78.1975 691.928 78.1975C684.676 79.8581 688.604 72.612 686.036 70.6495C683.014 73.6687 681.352 76.084 681.201 81.0657C680.748 89.3686 686.338 86.6513 689.813 87.859C693.741 89.3686 694.194 89.9724 692.23 94.1993C691.777 93.7464 691.172 93.2935 691.172 92.9916C690.568 89.2176 687.698 89.6705 685.129 89.8214C681.806 90.1234 683.921 92.3878 683.77 93.8974C683.467 98.4262 678.331 102.049 672.892 101.596C675.309 98.4262 680.295 96.3127 679.237 91.482C677.727 85.2926 677.273 79.4052 678.633 73.2158C679.086 71.2533 679.237 69.5927 676.669 68.9889C671.835 67.7812 663.525 70.9514 662.015 76.6879C661.259 79.5561 659.446 85.8965 665.792 88.0099C667.151 88.4628 667.907 89.9724 666.849 91.482C665.943 92.6897 664.734 92.2368 663.676 91.633C661.41 90.4253 659.144 89.0666 656.878 87.708C651.59 85.5945 645.698 85.5945 640.864 81.8205C639.655 80.9148 639.353 82.4244 639.353 83.3301C640.562 84.2359 641.77 85.1417 642.979 86.0474C644.641 86.5003 646.303 87.2551 646.303 89.0666C646.152 90.8782 644.943 91.9349 642.979 91.7839C641.619 91.633 641.77 90.5762 641.619 89.6705C641.166 89.5195 640.864 89.2176 640.411 89.0666H639.958L639.504 88.9157C638.598 89.2176 637.842 89.3686 636.936 89.6705C636.483 89.8214 636.181 89.8214 635.727 89.9724C633.008 90.5762 628.929 92.5387 627.871 91.633C624.246 87.859 621.526 90.5762 618.656 91.7839C614.879 93.5954 610.649 94.6522 607.325 97.5204C605.965 98.7281 603.246 99.4829 604.455 96.0108C605.814 92.2368 603.246 91.482 600.98 91.482C597.958 91.331 598.412 94.5012 598.714 96.0108C599.62 100.389 599.318 102.653 593.879 100.842C591.915 100.238 590.254 102.653 589.347 104.314C587.232 107.937 585.419 110.956 580.585 108.088C580.131 107.786 578.772 108.239 578.621 108.691C575.297 115.183 573.333 109.899 572.276 107.484C571.067 104.767 569.707 102.2 567.743 99.4829C572.88 98.5771 576.808 101.143 581.189 101.596C584.362 101.898 588.138 103.106 589.649 99.03C591.311 94.8031 587.232 93.4445 584.664 92.0858C577.563 88.4628 569.858 86.3493 562.153 84.5378C561.247 84.3869 559.434 83.934 559.434 83.6321C559.132 77.5937 553.693 80.6129 551.88 79.2542C547.046 75.4802 543.722 78.4994 539.945 79.8581C536.622 81.0657 533.449 82.5753 529.823 83.6321C525.895 84.6888 521.665 87.1041 519.248 90.2743C513.205 98.4262 505.5 105.068 499.608 113.22C497.795 115.636 495.378 117.447 491.903 117.296C491.601 117.598 491.299 117.749 490.846 117.749C488.277 119.561 489.637 122.127 489.486 124.391C489.335 126.958 491.148 129.524 489.939 132.09C489.184 133.751 489.335 135.261 490.997 136.317C492.81 137.374 494.471 138.431 496.587 137.072C499.155 135.261 501.723 133.6 504.442 131.788C506.557 136.015 505.953 140.846 509.126 144.318C510.334 145.677 510.183 148.998 513.054 147.337C515.471 145.979 520.456 146.733 519.55 141.752C518.795 138.28 520.003 136.619 522.723 134.959C524.536 133.902 526.651 132.543 524.989 129.524C520.608 121.674 521.363 118.504 528.917 114.126C530.881 112.918 532.694 111.711 533.298 109.295C534.204 105.521 536.168 102.955 540.399 103.106C542.363 103.106 544.024 104.163 544.478 106.125C545.384 110.352 541.758 111.711 539.341 113.522C534.658 116.843 531.636 122.731 533.902 126.203C537.226 131.185 541.909 129.524 546.442 127.863C550.218 126.505 553.693 126.203 556.564 129.524C553.391 134.808 548.708 131.336 544.78 131.939C540.852 132.543 537.528 132.845 542.211 137.223C543.269 138.28 543.269 139.336 542.362 140.393C541.909 140.997 540.852 141.601 540.399 141.45C533.449 137.223 534.658 142.658 533.751 146.583C533.147 149.3 531.636 153.527 528.312 152.47C524.233 151.262 520.91 152.772 517.284 153.074C512.752 153.527 508.068 153.225 503.536 152.621C500.666 152.168 498.702 150.357 498.248 154.734C498.097 156.244 496.435 156.093 495.227 155.942C493.716 155.791 492.507 155.64 491.45 156.999C484.198 166.358 473.623 170.434 463.35 175.718C465.012 178.586 468.486 179.492 470.299 182.209C472.112 185.077 472.716 187.946 471.357 190.814C469.695 193.984 466.673 193.229 463.803 192.776C459.875 192.173 455.947 190.512 451.868 192.173C450.357 192.776 448.091 193.078 448.847 195.192C450.357 199.57 448.544 204.098 449.149 208.476C449.602 212.25 449.904 214.062 455.041 214.968C459.875 215.873 462.897 213.609 466.825 213.458C471.659 213.307 473.925 211.043 474.378 206.816C474.983 199.721 484.349 200.173 485.558 193.682C485.558 193.531 486.767 193.38 487.22 193.531C490.997 194.588 493.867 192.776 496.435 190.361C498.399 188.399 501.27 188.097 502.176 190.361C504.594 196.399 510.334 198.362 514.867 201.834C516.377 203.042 519.248 204.098 518.19 206.967C517.284 209.533 514.565 209.08 512.449 209.382C511.09 209.533 509.277 208.778 508.975 210.741C508.673 212.703 510.637 213.307 511.845 214.213C513.356 215.27 514.867 215.722 515.471 213.307C515.924 211.646 517.435 211.345 518.644 210.741C523.78 207.571 523.78 202.438 519.248 198.815C516.075 196.249 514.111 192.324 510.334 190.059C509.126 189.304 508.824 187.644 509.881 186.285C510.637 185.228 512.147 184.625 513.054 185.53C517.435 189.455 521.363 193.833 526.953 196.399C527.557 196.701 527.708 198.664 527.859 199.721C528.01 201.079 528.01 202.589 529.219 203.646C531.183 205.457 532.996 206.816 531.032 210.137C529.974 211.797 531.938 215.42 534.355 213.76C537.075 211.646 540.096 212.25 542.967 211.797C542.211 208.929 537.226 208.778 539.492 205.155C541.607 201.683 544.78 202.136 548.103 203.495C548.254 203.646 548.557 203.646 548.708 203.646C547.952 211.345 550.37 216.628 555.355 216.175C561.096 215.722 566.384 218.591 572.124 216.779C574.088 216.175 575.146 217.232 575.297 219.194C575.901 223.119 569.858 231.875 565.93 233.083C562.909 233.234 560.038 233.385 556.866 233.234C549.614 232.781 542.967 230.818 536.168 228.554C533.902 227.799 531.636 226.893 529.974 229.913C527.104 235.045 522.874 235.8 518.039 232.026C515.622 230.064 513.054 228.101 510.032 227.95C503.838 227.648 503.083 225.082 505.047 219.798C506.709 215.27 504.745 213.156 499.91 213.609C493.716 214.213 487.371 214.817 481.177 215.27C479.062 215.42 477.098 215.722 475.436 216.93C471.055 219.798 466.22 220.1 461.386 218.591C458.818 217.836 457.76 218.44 456.702 220.553C453.53 226.592 444.919 229.46 446.127 238.215C446.127 238.517 445.372 239.272 444.919 239.423C435.401 242.744 433.588 253.462 426.789 259.199C425.128 260.709 425.279 263.124 426.638 264.785C430.113 269.162 428.149 273.842 427.092 278.069C425.581 283.956 425.883 288.636 431.473 292.259C433.89 293.769 435.854 296.033 436.458 298.902C437.063 301.77 439.027 303.279 441.293 304.94C447.034 309.167 452.321 314.149 460.328 310.224C461.235 309.771 462.897 309.922 463.954 310.375C468.637 312.035 472.716 310.827 476.644 308.261C479.817 306.148 483.292 305.544 486.313 307.506C489.939 309.771 493.112 312.337 497.795 312.79C499.759 312.941 502.176 315.658 501.119 317.772C497.795 324.867 497.191 330.905 506.104 334.226C506.255 334.226 506.406 334.528 506.406 334.679C508.37 344.492 515.924 353.851 508.219 364.267C506.255 366.985 507.011 370.759 508.068 373.778C512.147 385.402 515.471 397.328 521.061 408.348C523.025 412.122 524.838 416.047 524.838 420.425C524.989 425.708 528.615 427.822 532.845 427.369C542.816 426.161 552.938 425.104 558.981 415.141C561.096 411.669 565.93 409.857 565.628 404.725C565.326 400.8 567.592 398.535 570.916 397.63C575.297 396.271 575.75 393.252 573.786 390.082C570.312 384.496 573.333 381.024 576.657 377.401C579.074 374.835 582.247 373.476 585.419 371.966C587.081 371.212 589.498 370.306 588.743 368.192C586.93 363.513 588.894 358.531 587.081 353.851C583.002 344.039 584.362 334.981 592.218 327.433C594.937 324.867 598.109 322.904 600.98 320.64C602.793 319.13 604.606 317.47 606.268 315.96C606.872 315.356 607.325 314.752 607.929 314.149L608.081 313.847C608.987 312.941 609.893 311.884 610.8 310.978C613.217 306.601 615.936 302.223 617.145 297.241C617.447 295.58 619.109 293.769 617.447 292.108C615.785 290.448 614.124 292.108 612.462 292.863C604.757 296.033 597.807 293.769 593.728 286.674C593.426 286.221 592.973 285.768 592.52 285.315C584.815 278.22 578.016 270.672 576.203 259.652C575.599 255.727 572.88 251.953 570.916 248.179C569.556 245.613 568.196 243.197 568.045 240.329C571.52 240.933 574.995 240.48 576.355 245.764C577.865 251.5 581.491 256.784 584.815 261.463C590.102 269.011 595.088 276.258 597.203 285.315C597.505 286.674 598.261 288.032 599.469 287.278C603.095 285.013 607.627 286.372 611.102 284.258C620.62 278.069 632.555 275.503 639.353 265.086C641.77 261.312 642.224 257.086 638.296 254.67C634.217 252.104 630.138 249.538 625.152 253.312C621.828 255.878 619.411 254.67 618.807 250.594C618.354 248.028 618.354 245.764 614.577 245.16C612.613 244.858 610.951 241.99 610.951 239.423C610.951 237.763 612.462 236.857 613.821 236.555C616.39 235.951 616.994 238.517 618.203 240.027C621.98 244.858 626.059 248.934 633.008 246.216C633.763 245.914 635.123 246.216 635.878 246.82C642.375 251.5 649.626 252.255 657.331 251.349C660.051 251.047 662.77 251.349 664.432 253.764C666.396 256.331 670.173 256.633 670.022 261.765C670.022 265.841 675.46 263.577 679.539 262.822C677.878 276.559 684.827 287.429 689.964 298.902C691.626 302.525 692.532 302.525 695.251 299.807C699.179 295.731 699.935 290.599 700.539 285.315C700.992 280.484 702.956 276.71 708.093 275.503C710.208 275.05 710.963 273.993 711.568 272.031C713.38 265.841 722.143 267.502 724.107 261.312C724.107 261.312 724.56 261.463 724.711 261.312C730.15 260.709 735.286 260.105 737.099 267.502C737.855 270.521 741.934 272.333 741.783 276.258C741.783 278.22 743.293 278.069 744.955 277.767C748.128 277.314 753.264 284.409 751.452 286.976C746.315 293.92 750.998 300.713 754.473 304.336C758.854 309.016 758.854 313.847 761.423 319.432C754.926 315.96 752.509 307.808 743.445 309.469C744.653 311.733 748.883 315.356 740.423 315.205C747.524 319.583 750.696 324.716 753.264 330.603C754.322 333.019 756.286 334.83 757.948 336.944C758.703 337.698 760.365 339.359 760.667 337.698C762.027 332.264 763.991 336.491 765.199 337.396C767.919 339.51 770.487 341.774 774.264 341.321C774.113 335.736 773.509 330.15 767.617 327.282C769.279 324.716 763.991 323.508 766.861 319.583C768.523 317.319 768.976 310.073 763.387 306.902C757.041 303.43 756.437 297.694 756.89 291.203C757.192 287.429 759.307 286.674 761.423 288.938C764.746 292.41 769.883 294.222 771.091 299.958C772.904 297.996 774.415 296.788 776.228 295.882C784.235 291.655 785.293 286.976 779.854 280.032C778.494 278.22 777.134 276.408 776.077 274.597C773.66 270.672 775.624 264.181 779.854 264.181C784.537 264.03 788.465 261.01 792.544 261.01C802.817 261.01 807.803 254.821 813.242 247.726C816.263 243.801 816.414 239.574 817.774 235.347C819.285 230.667 817.623 227.648 815.508 225.082C811.127 219.798 810.975 219.044 817.472 215.571C818.529 214.968 820.191 214.968 819.738 213.307C819.285 211.646 817.623 211.495 816.263 211.948C815.357 212.25 814.299 212.552 813.393 213.005C811.731 213.911 810.22 214.062 809.314 212.099C808.709 210.59 808.558 207.872 810.22 208.023C813.242 208.325 815.81 198.06 818.982 207.571C818.982 207.721 820.191 207.872 820.644 207.571C824.119 206.061 825.932 204.551 828.5 210.288C830.313 214.364 831.673 217.987 831.824 222.214C835.148 222.365 838.925 223.27 840.737 219.345C843.457 213.609 838.169 210.439 834.997 205.608C839.076 205.759 840.586 203.344 841.191 200.928C842.399 195.645 845.874 194.437 850.557 194.588C854.636 194.739 857.356 192.927 859.169 189.153C859.924 187.493 860.831 185.832 862.19 184.776C870.802 178.284 871.859 168.472 873.37 158.961C872.614 153.98 872.161 148.998 864.91 153.829C862.643 155.338 860.982 152.319 859.622 150.809C857.809 148.847 860.377 148.243 861.284 147.186C866.571 141.148 873.672 137.525 880.168 133.147C881.528 132.241 883.039 132.09 884.701 132.09C894.218 132.694 903.736 133.147 914.765 133.902C908.268 129.373 913.405 127.863 915.369 126.203C918.391 123.788 924.131 120.466 925.642 123.637C927.757 127.712 928.361 125.146 929.872 124.391C931.685 123.486 933.498 122.58 935.311 121.825C935.764 121.372 936.066 120.315 936.822 121.07C937.426 121.674 936.973 122.429 936.368 123.033C932.138 128.618 926.397 132.694 920.959 136.921C912.65 143.563 911.894 144.62 914.614 154.734C915.067 156.697 915.067 158.659 915.369 160.773C915.671 162.584 914.462 165.302 917.182 165.905C919.448 166.358 920.506 164.094 921.865 162.584C924.282 159.867 925.34 156.395 928.361 153.678C931.836 150.508 934.858 145.677 934.556 140.091C934.404 137.978 931.836 136.166 934.253 133.6C936.52 131.185 948.606 127.26 951.476 129.524C954.346 131.788 954.951 129.977 956.915 128.618C963.562 124.24 969.152 116.994 978.821 120.014C980.029 120.466 980.634 119.259 980.483 118.202C980.029 115.485 980.634 112.164 976.101 112.616C974.893 112.767 973.382 112.616 973.684 110.805C973.684 110.352 974.893 109.446 975.346 109.446C981.54 110.654 982.296 105.672 983.655 101.747C988.641 104.465 993.324 107.031 997.856 109.597C999.971 110.805 1001.94 110.352 1003.3 108.691C1005.26 106.125 1007.83 104.314 1011.3 102.049C1005.56 101.898 1002.54 96.7656 998.461 101.445ZM623.641 216.326C621.526 218.591 613.972 216.326 611.555 213.458C610.044 211.646 610.347 209.835 611.555 208.476C614.275 204.853 612.764 202.136 610.196 199.419C608.685 196.55 607.929 193.38 605.663 190.663C603.246 187.644 606.721 185.681 608.987 184.776C610.498 184.172 612.008 184.172 612.462 182.209C611.706 181.303 611.857 179.643 611.706 178.435C612.008 179.794 611.857 181.303 612.462 182.209C614.577 184.021 618.505 184.776 615.03 189.002C613.67 190.512 615.483 191.72 616.692 192.173C620.922 194.135 621.98 197.003 620.469 201.381C619.713 203.344 621.375 204.551 622.433 206.061C624.548 209.231 626.663 212.854 623.641 216.326ZM611.253 177.529C611.404 177.831 611.404 177.982 611.555 178.284C611.555 177.982 611.404 177.831 611.253 177.529ZM755.984 330.754C753.113 329.848 752.358 327.433 751.603 325.018C751.452 324.565 751.754 323.961 751.905 323.357C752.509 323.961 753.113 324.414 753.567 325.018C754.775 326.678 757.495 327.282 757.344 329.848C757.344 330.301 756.286 330.905 755.984 330.754Z" fill="#155DE9" fill-opacity="0.1"/>
<path d="M612.462 182.209C612.008 184.172 610.498 184.172 608.987 184.776C606.721 185.681 603.246 187.644 605.663 190.663C607.929 193.38 608.685 196.55 610.196 199.419C612.764 202.136 614.275 204.853 611.555 208.476C610.347 209.835 610.044 211.646 611.555 213.458C613.972 216.326 621.526 218.591 623.641 216.326C626.663 212.854 624.548 209.231 622.433 206.061C621.375 204.551 619.713 203.344 620.469 201.381C621.98 197.003 620.922 194.135 616.692 192.173C615.483 191.72 613.67 190.512 615.03 189.002C618.505 184.776 614.577 184.021 612.462 182.209ZM612.462 182.209C611.706 181.303 611.857 179.643 611.706 178.435C612.008 179.794 611.857 181.303 612.462 182.209ZM998.461 101.445C986.224 89.2176 971.267 84.2359 954.347 84.3869C953.742 86.3494 956.915 87.708 955.404 89.9724C951.023 90.2743 949.21 88.7647 952.534 82.7263C943.469 89.2176 935.16 85.4436 927.304 86.1984C926.246 86.3493 925.038 86.0474 924.736 84.9907C922.318 76.084 915.369 79.2542 909.779 79.7071C907.06 80.009 904.643 79.1033 902.225 79.1033C897.542 79.1033 898.146 73.2158 894.369 72.9139C888.629 72.461 883.341 70.6495 877.751 69.5927C873.823 68.8379 867.478 70.1966 867.176 72.7629C866.42 80.6129 861.888 77.2917 858.111 77.2917C853.881 77.1408 849.349 74.7254 845.27 76.6879C839.529 79.4052 837.263 78.6504 837.565 72.31C837.716 68.536 835.903 66.7245 833.184 66.2716C827.594 65.2149 821.853 63.1015 816.263 67.1774C814.299 68.536 811.127 70.1966 809.163 66.5735C808.407 65.2149 807.048 65.6678 805.839 65.6678C796.019 66.4226 785.897 62.7995 776.53 68.0831C776.228 68.2341 775.624 67.7812 774.415 67.4793C779.854 63.7053 784.839 60.3842 790.429 57.9688C792.091 57.365 794.206 56.9121 794.206 54.6477C794.206 52.3833 792.091 51.7794 790.429 51.1756C785.897 49.515 781.365 47.4016 776.681 46.4958C773.66 45.892 772.3 44.3824 771.243 41.967C770.789 41.967 770.336 41.816 769.883 41.816C768.674 41.967 767.617 42.118 766.408 42.2689C764.142 43.0237 761.725 43.7785 759.459 44.5333C758.703 45.59 757.797 46.7977 757.041 47.8545C755.984 49.8169 754.171 49.8169 752.358 49.9679C743.293 50.7227 734.531 52.6852 725.769 55.1006C722.445 56.0063 719.726 56.7611 718.668 60.5351C717.762 63.7053 715.344 64.913 712.172 64.762C709.755 64.6111 707.337 64.4601 704.92 64.3091C703.409 64.3091 701.445 64.0072 700.69 65.9697C700.086 67.6303 701.143 69.1399 702.352 70.1966C704.165 72.0081 706.28 73.5177 708.395 75.3292C709.755 76.386 710.661 77.7446 709.604 79.5561C708.999 80.6129 708.093 81.6696 706.884 81.6696C704.769 81.5186 705.676 79.5561 705.222 78.3485C704.165 75.6312 702.201 73.6687 699.633 72.31C697.517 71.2533 695.251 70.8004 693.287 72.0081C690.87 73.3668 692.683 75.6312 692.683 77.4427C692.834 77.7446 692.985 77.8956 693.287 78.1975C692.834 78.1975 692.381 78.1975 691.928 78.1975C684.676 79.8581 688.604 72.612 686.036 70.6495C683.014 73.6687 681.352 76.084 681.201 81.0657C680.748 89.3686 686.338 86.6513 689.813 87.859C693.741 89.3686 694.194 89.9724 692.23 94.1993C691.777 93.7464 691.172 93.2935 691.172 92.9916C690.568 89.2176 687.698 89.6705 685.129 89.8214C681.806 90.1234 683.921 92.3878 683.77 93.8974C683.467 98.4262 678.331 102.049 672.892 101.596C675.309 98.4262 680.295 96.3127 679.237 91.482C677.727 85.2926 677.273 79.4052 678.633 73.2158C679.086 71.2533 679.237 69.5927 676.669 68.9889C671.835 67.7812 663.525 70.9514 662.015 76.6879C661.259 79.5561 659.446 85.8965 665.792 88.0099C667.151 88.4628 667.907 89.9724 666.849 91.482C665.943 92.6897 664.734 92.2368 663.676 91.633C661.41 90.4253 659.144 89.0666 656.878 87.708C651.59 85.5945 645.698 85.5945 640.864 81.8205C639.655 80.9148 639.353 82.4244 639.353 83.3301C640.562 84.2359 641.77 85.1417 642.979 86.0474C644.641 86.5003 646.303 87.2551 646.303 89.0666C646.152 90.8782 644.943 91.9349 642.979 91.7839C641.619 91.633 641.77 90.5762 641.619 89.6705C641.166 89.5195 640.864 89.2176 640.411 89.0666H639.958L639.504 88.9157C638.598 89.2176 637.842 89.3686 636.936 89.6705C636.483 89.8214 636.181 89.8214 635.727 89.9724C633.008 90.5762 628.929 92.5387 627.871 91.633C624.246 87.859 621.526 90.5762 618.656 91.7839C614.879 93.5954 610.649 94.6522 607.325 97.5204C605.965 98.7281 603.246 99.4829 604.455 96.0108C605.814 92.2368 603.246 91.482 600.98 91.482C597.958 91.331 598.412 94.5012 598.714 96.0108C599.62 100.389 599.318 102.653 593.879 100.842C591.915 100.238 590.254 102.653 589.347 104.314C587.232 107.937 585.419 110.956 580.585 108.088C580.131 107.786 578.772 108.239 578.621 108.691C575.297 115.183 573.333 109.899 572.276 107.484C571.067 104.767 569.707 102.2 567.743 99.4829C572.88 98.5771 576.808 101.143 581.189 101.596C584.362 101.898 588.138 103.106 589.649 99.03C591.311 94.8031 587.232 93.4445 584.664 92.0858C577.563 88.4628 569.858 86.3493 562.153 84.5378C561.247 84.3869 559.434 83.934 559.434 83.6321C559.132 77.5936 553.693 80.6129 551.88 79.2542C547.046 75.4802 543.722 78.4994 539.945 79.8581C536.622 81.0657 533.449 82.5753 529.823 83.6321C525.895 84.6888 521.665 87.1042 519.248 90.2743C513.205 98.4262 505.5 105.068 499.608 113.22C497.795 115.636 495.378 117.447 491.903 117.296C491.601 117.598 491.299 117.749 490.846 117.749C488.277 119.561 489.637 122.127 489.486 124.391C489.335 126.958 491.148 129.524 489.939 132.09C489.184 133.751 489.335 135.261 490.997 136.317C492.81 137.374 494.471 138.431 496.587 137.072C499.155 135.261 501.723 133.6 504.442 131.788C506.557 136.015 505.953 140.846 509.126 144.318C510.334 145.677 510.183 148.998 513.054 147.337C515.471 145.979 520.456 146.733 519.55 141.752C518.795 138.28 520.003 136.619 522.723 134.959C524.536 133.902 526.651 132.543 524.989 129.524C520.608 121.674 521.363 118.504 528.917 114.126C530.881 112.918 532.694 111.711 533.298 109.295C534.204 105.521 536.168 102.955 540.399 103.106C542.363 103.106 544.024 104.163 544.478 106.125C545.384 110.352 541.758 111.711 539.341 113.522C534.658 116.843 531.636 122.731 533.902 126.203C537.226 131.185 541.909 129.524 546.442 127.863C550.218 126.505 553.693 126.203 556.564 129.524C553.391 134.808 548.708 131.336 544.78 131.939C540.852 132.543 537.528 132.845 542.211 137.223C543.269 138.28 543.269 139.336 542.362 140.393C541.909 140.997 540.852 141.601 540.399 141.45C533.449 137.223 534.658 142.658 533.751 146.583C533.147 149.3 531.636 153.527 528.312 152.47C524.233 151.262 520.91 152.772 517.284 153.074C512.752 153.527 508.068 153.225 503.536 152.621C500.666 152.168 498.702 150.357 498.248 154.734C498.097 156.244 496.435 156.093 495.227 155.942C493.716 155.791 492.507 155.64 491.45 156.999C484.198 166.358 473.623 170.434 463.35 175.718C465.012 178.586 468.486 179.492 470.299 182.209C472.112 185.077 472.716 187.946 471.357 190.814C469.695 193.984 466.673 193.229 463.803 192.776C459.875 192.173 455.947 190.512 451.868 192.173C450.357 192.776 448.091 193.078 448.847 195.192C450.357 199.57 448.544 204.098 449.149 208.476C449.602 212.25 449.904 214.062 455.041 214.968C459.875 215.873 462.897 213.609 466.825 213.458C471.659 213.307 473.925 211.043 474.378 206.816C474.983 199.721 484.349 200.173 485.558 193.682C485.558 193.531 486.767 193.38 487.22 193.531C490.997 194.588 493.867 192.776 496.435 190.361C498.399 188.399 501.27 188.097 502.176 190.361C504.594 196.399 510.334 198.362 514.867 201.834C516.377 203.042 519.248 204.098 518.19 206.967C517.284 209.533 514.565 209.08 512.449 209.382C511.09 209.533 509.277 208.778 508.975 210.741C508.673 212.703 510.637 213.307 511.845 214.213C513.356 215.27 514.867 215.722 515.471 213.307C515.924 211.646 517.435 211.345 518.644 210.741C523.78 207.571 523.78 202.438 519.248 198.815C516.075 196.249 514.111 192.324 510.334 190.059C509.126 189.304 508.824 187.644 509.881 186.285C510.637 185.228 512.147 184.625 513.054 185.53C517.435 189.455 521.363 193.833 526.953 196.399C527.557 196.701 527.708 198.664 527.859 199.721C528.01 201.079 528.01 202.589 529.219 203.646C531.183 205.457 532.996 206.816 531.032 210.137C529.974 211.797 531.938 215.42 534.355 213.76C537.075 211.646 540.096 212.25 542.967 211.797C542.211 208.929 537.226 208.778 539.492 205.155C541.607 201.683 544.78 202.136 548.103 203.495C548.254 203.646 548.557 203.646 548.708 203.646C547.952 211.345 550.37 216.628 555.355 216.175C561.096 215.722 566.384 218.591 572.124 216.779C574.088 216.175 575.146 217.232 575.297 219.194C575.901 223.119 569.858 231.875 565.93 233.083C562.909 233.234 560.038 233.385 556.866 233.234C549.614 232.781 542.967 230.818 536.168 228.554C533.902 227.799 531.636 226.893 529.974 229.913C527.104 235.045 522.874 235.8 518.039 232.026C515.622 230.064 513.054 228.101 510.032 227.95C503.838 227.648 503.083 225.082 505.047 219.798C506.709 215.27 504.745 213.156 499.91 213.609C493.716 214.213 487.371 214.817 481.177 215.27C479.062 215.42 477.098 215.722 475.436 216.93C471.055 219.798 466.22 220.1 461.386 218.591C458.818 217.836 457.76 218.44 456.702 220.553C453.53 226.592 444.919 229.46 446.127 238.215C446.127 238.517 445.372 239.272 444.919 239.423C435.401 242.744 433.588 253.462 426.789 259.199C425.128 260.709 425.279 263.124 426.638 264.785C430.113 269.162 428.149 273.842 427.092 278.069C425.581 283.956 425.883 288.636 431.473 292.259C433.89 293.769 435.854 296.033 436.458 298.902C437.063 301.77 439.027 303.279 441.293 304.94C447.034 309.167 452.321 314.149 460.328 310.224C461.235 309.771 462.897 309.922 463.954 310.375C468.637 312.035 472.716 310.827 476.644 308.261C479.817 306.148 483.292 305.544 486.313 307.506C489.939 309.771 493.112 312.337 497.795 312.79C499.759 312.941 502.176 315.658 501.119 317.772C497.795 324.867 497.191 330.905 506.104 334.226C506.255 334.226 506.406 334.528 506.406 334.679C508.37 344.492 515.924 353.851 508.219 364.267C506.255 366.985 507.011 370.759 508.068 373.778C512.147 385.402 515.471 397.328 521.061 408.348C523.025 412.122 524.838 416.047 524.838 420.425C524.989 425.708 528.615 427.822 532.845 427.369C542.816 426.161 552.938 425.104 558.981 415.141C561.096 411.669 565.93 409.857 565.628 404.725C565.326 400.8 567.592 398.535 570.916 397.63C575.297 396.271 575.75 393.252 573.786 390.082C570.312 384.496 573.333 381.024 576.657 377.401C579.074 374.835 582.247 373.476 585.419 371.966C587.081 371.212 589.498 370.306 588.743 368.192C586.93 363.513 588.894 358.531 587.081 353.851C583.002 344.039 584.362 334.981 592.218 327.433C594.937 324.867 598.109 322.904 600.98 320.64C602.793 319.13 604.606 317.47 606.268 315.96C606.872 315.356 607.325 314.752 607.929 314.149L608.081 313.847C608.987 312.941 609.893 311.884 610.8 310.978C613.217 306.601 615.936 302.223 617.145 297.241C617.447 295.58 619.109 293.769 617.447 292.108C615.785 290.448 614.124 292.108 612.462 292.863C604.757 296.033 597.807 293.769 593.728 286.674C593.426 286.221 592.973 285.768 592.52 285.315C584.815 278.22 578.016 270.672 576.203 259.652C575.599 255.727 572.88 251.953 570.916 248.179C569.556 245.613 568.196 243.197 568.045 240.329C571.52 240.933 574.995 240.48 576.355 245.764C577.865 251.5 581.491 256.784 584.815 261.463C590.102 269.011 595.088 276.258 597.203 285.315C597.505 286.674 598.261 288.032 599.469 287.278C603.095 285.013 607.627 286.372 611.102 284.258C620.62 278.069 632.555 275.503 639.353 265.086C641.77 261.312 642.224 257.086 638.296 254.67C634.217 252.104 630.138 249.538 625.152 253.312C621.828 255.878 619.411 254.67 618.807 250.594C618.354 248.028 618.354 245.764 614.577 245.16C612.613 244.858 610.951 241.99 610.951 239.423C610.951 237.763 612.462 236.857 613.821 236.555C616.39 235.951 616.994 238.517 618.203 240.027C621.98 244.858 626.059 248.934 633.008 246.216C633.763 245.914 635.123 246.216 635.878 246.82C642.375 251.5 649.626 252.255 657.331 251.349C660.051 251.047 662.77 251.349 664.432 253.764C666.396 256.331 670.173 256.633 670.022 261.765C670.022 265.841 675.46 263.577 679.539 262.822C677.878 276.559 684.827 287.429 689.964 298.902C691.626 302.525 692.532 302.525 695.251 299.807C699.179 295.731 699.935 290.599 700.539 285.315C700.992 280.484 702.956 276.71 708.093 275.503C710.208 275.05 710.963 273.993 711.568 272.031C713.38 265.841 722.143 267.502 724.107 261.312C724.107 261.312 724.56 261.463 724.711 261.312C730.15 260.709 735.286 260.105 737.099 267.502C737.855 270.521 741.934 272.333 741.783 276.258C741.783 278.22 743.293 278.069 744.955 277.767C748.128 277.314 753.264 284.409 751.452 286.976C746.315 293.92 750.998 300.713 754.473 304.336C758.854 309.016 758.854 313.847 761.423 319.432C754.926 315.96 752.509 307.808 743.445 309.469C744.653 311.733 748.883 315.356 740.423 315.205C747.524 319.583 750.696 324.716 753.264 330.603C754.322 333.019 756.286 334.83 757.948 336.944C758.703 337.698 760.365 339.359 760.667 337.698C762.027 332.264 763.991 336.491 765.199 337.396C767.919 339.51 770.487 341.774 774.264 341.321C774.113 335.736 773.509 330.15 767.617 327.282C769.279 324.716 763.991 323.508 766.861 319.583C768.523 317.319 768.976 310.073 763.387 306.902C757.041 303.43 756.437 297.694 756.89 291.203C757.192 287.429 759.308 286.674 761.423 288.938C764.746 292.41 769.883 294.222 771.091 299.958C772.904 297.996 774.415 296.788 776.228 295.882C784.235 291.655 785.293 286.976 779.854 280.032C778.494 278.22 777.134 276.408 776.077 274.597C773.66 270.672 775.624 264.181 779.854 264.181C784.537 264.03 788.465 261.01 792.544 261.01C802.817 261.01 807.803 254.821 813.242 247.726C816.263 243.801 816.414 239.574 817.774 235.347C819.285 230.667 817.623 227.648 815.508 225.082C811.127 219.798 810.975 219.044 817.472 215.571C818.529 214.968 820.191 214.968 819.738 213.307C819.285 211.646 817.623 211.495 816.263 211.948C815.357 212.25 814.299 212.552 813.393 213.005C811.731 213.911 810.22 214.062 809.314 212.099C808.709 210.59 808.558 207.872 810.22 208.023C813.242 208.325 815.81 198.06 818.982 207.571C818.982 207.721 820.191 207.872 820.644 207.571C824.119 206.061 825.932 204.551 828.5 210.288C830.313 214.364 831.673 217.987 831.824 222.214C835.148 222.365 838.925 223.27 840.737 219.345C843.457 213.609 838.169 210.439 834.997 205.608C839.076 205.759 840.586 203.344 841.191 200.928C842.399 195.645 845.874 194.437 850.557 194.588C854.636 194.739 857.356 192.927 859.169 189.153C859.924 187.493 860.831 185.832 862.19 184.776C870.802 178.284 871.859 168.472 873.37 158.961C872.614 153.98 872.161 148.998 864.91 153.829C862.643 155.338 860.982 152.319 859.622 150.809C857.809 148.847 860.377 148.243 861.284 147.186C866.571 141.148 873.672 137.525 880.168 133.147C881.528 132.241 883.039 132.09 884.7 132.09C894.218 132.694 903.736 133.147 914.765 133.902C908.268 129.373 913.405 127.863 915.369 126.203C918.39 123.788 924.131 120.466 925.642 123.637C927.757 127.712 928.361 125.146 929.872 124.391C931.685 123.486 933.498 122.58 935.311 121.825C935.764 121.372 936.066 120.315 936.822 121.07C937.426 121.674 936.973 122.429 936.368 123.033C932.138 128.618 926.397 132.694 920.959 136.921C912.65 143.563 911.894 144.62 914.614 154.734C915.067 156.697 915.067 158.659 915.369 160.773C915.671 162.584 914.462 165.302 917.182 165.905C919.448 166.358 920.506 164.094 921.865 162.584C924.282 159.867 925.34 156.395 928.361 153.678C931.836 150.508 934.858 145.677 934.556 140.091C934.404 137.978 931.836 136.166 934.253 133.6C936.52 131.185 948.606 127.26 951.476 129.524C954.347 131.788 954.951 129.977 956.915 128.618C963.562 124.24 969.152 116.994 978.821 120.014C980.029 120.466 980.634 119.259 980.483 118.202C980.029 115.485 980.634 112.164 976.101 112.616C974.893 112.767 973.382 112.616 973.684 110.805C973.684 110.352 974.893 109.446 975.346 109.446C981.54 110.654 982.296 105.672 983.655 101.747C988.641 104.465 993.324 107.031 997.856 109.597C999.971 110.805 1001.94 110.352 1003.3 108.691C1005.26 106.125 1007.83 104.314 1011.3 102.049C1005.56 101.898 1002.54 96.7656 998.461 101.445ZM611.253 177.529C611.404 177.831 611.404 177.982 611.555 178.284C611.555 177.982 611.404 177.831 611.253 177.529ZM755.984 330.754C753.113 329.848 752.358 327.433 751.603 325.018C751.452 324.565 751.754 323.961 751.905 323.357C752.509 323.961 753.113 324.414 753.567 325.018C754.775 326.678 757.495 327.282 757.343 329.848C757.343 330.301 756.286 330.905 755.984 330.754Z" stroke="#155DE9" stroke-opacity="0.1" stroke-miterlimit="10" stroke-linecap="round" stroke-linejoin="round"/>
<path d="M772.602 342.831C772.451 342.831 772.451 342.831 772.602 342.831V342.831Z" fill="#155DE9" fill-opacity="0.1" stroke="#155DE9" stroke-opacity="0.1" stroke-miterlimit="10" stroke-linecap="round" stroke-linejoin="round"/>
<path d="M371.194 338.906C365.906 337.095 360.92 334.226 355.331 333.019C351.403 332.113 347.324 331.811 344 328.943C341.734 326.98 339.468 325.471 336.446 327.433C334.784 328.49 333.273 327.584 332.065 326.376C330.554 324.716 332.065 323.508 332.971 322.149C332.971 321.395 332.971 320.64 332.971 320.036C329.648 313.847 324.813 309.771 317.562 309.016C313.029 308.563 310.461 304.94 307.137 302.374C302.907 298.902 298.526 294.675 292.785 294.826C289.159 294.977 285.987 295.128 282.361 293.769C278.886 292.561 275.109 291.354 271.181 292.108L271.03 291.957C270.728 290.75 270.426 289.391 268.764 290.146C266.498 291.203 264.081 291.806 262.268 293.467C258.038 297.09 254.714 299.505 247.916 298.902C238.851 298.147 235.225 296.033 237.642 287.127C238.851 283.051 237.793 281.088 233.714 280.182C230.391 279.428 226.161 281.692 224.046 278.673C221.779 275.201 226.312 272.182 226.463 268.558C226.614 266.294 228.578 262.822 225.254 262.671C222.837 262.52 217.851 261.01 217.398 266.596C217.247 269.162 215.887 271.578 213.017 271.427C209.391 271.276 205.161 273.389 202.14 269.766C197.154 264.03 195.945 249.99 199.722 243.197C200.025 242.593 200.78 241.688 201.384 241.537C206.068 240.782 209.996 234.592 215.434 240.178C216.794 241.688 218.758 239.574 220.269 238.668C227.671 233.687 235.678 235.8 239.002 243.801C239.757 245.613 240.815 247.424 242.024 249.085C242.93 250.292 243.534 252.557 245.649 251.5C247.613 250.443 247.916 248.481 247.009 246.216C245.801 243.499 245.045 240.48 243.988 237.763C242.93 235.045 242.93 232.932 245.801 230.969C248.369 229.309 250.333 227.044 252.75 225.233C256.074 222.818 257.736 219.798 259.548 216.024C262.268 209.986 262.721 200.928 272.541 200.475C273.598 200.475 274.656 199.57 274.505 198.513C274.052 189.304 284.023 191.72 287.044 185.379C288.253 188.7 285.231 190.059 286.742 191.871C287.649 192.927 289.008 192.625 290.066 191.871C294.145 189.153 298.677 187.493 303.36 186.134C305.022 185.681 305.022 184.625 304.418 183.417C303.814 182.209 302.303 179.945 301.85 180.851C299.735 184.625 297.166 181.303 295.202 181.907C289.461 183.568 290.066 179.643 291.425 177.077C294.749 170.887 289.915 172.246 287.044 172.095C285.533 171.944 283.872 172.699 282.361 173.152C281.908 174.208 281.001 174.359 279.944 174.359C281.001 174.359 281.908 174.057 282.361 173.152L282.21 173.001C285.08 169.679 289.31 168.019 292.936 168.472C299.886 169.529 305.627 167.717 311.821 164.698C316.806 162.282 317.41 158.961 313.936 154.583C309.252 148.847 299.432 148.243 298.224 138.884C296.864 136.468 295.504 133.902 293.994 131.637C292.332 128.92 290.217 127.562 288.706 131.637C287.497 134.808 284.627 135.864 282.21 135.713C279.49 135.562 278.282 132.543 277.678 129.826C277.375 128.467 278.131 126.505 276.62 125.901C270.879 123.486 266.649 117.9 259.095 119.108C254.563 119.863 252.297 120.164 253.959 125.448C254.563 127.26 256.527 130.581 254.412 131.486C247.916 134.506 252.599 136.77 254.261 139.638C255.923 142.658 259.246 146.733 254.261 148.847C249.426 150.809 250.635 153.829 251.088 156.999C251.39 159.263 253.656 161.528 250.031 163.188C246.707 164.698 245.196 161.98 243.534 160.169C241.721 158.056 241.419 155.489 241.873 152.772C242.175 150.809 241.117 148.243 239.153 148.998C234.772 150.96 232.355 147.639 229.182 146.432C224.197 144.469 219.967 140.393 213.923 141.148C211.657 141.45 211.808 139.336 211.808 137.676C211.506 137.223 211.204 136.77 210.902 136.468C209.996 133.6 204.859 134.053 206.672 128.618C209.24 121.372 216.643 118.806 219.967 112.616C220.118 112.315 220.722 112.315 221.024 112.315C225.858 112.616 227.218 109.295 227.974 105.521C228.88 101.445 230.844 100.087 235.225 100.993C241.419 102.2 243.685 99.03 242.024 92.9916C241.873 92.5387 241.721 91.633 242.024 91.331C246.405 87.2551 241.268 86.3493 239.757 84.2359C243.081 84.6888 246.103 83.6321 249.124 82.5753C250.484 82.1225 251.995 81.3676 253.203 82.2734C258.189 86.1984 263.174 90.1234 268.16 94.0483C269.368 95.105 269.519 97.0675 268.613 97.9733C265.289 101.294 264.836 108.691 257.131 106.276C255.772 105.823 254.261 106.427 253.505 107.937C253.052 108.993 253.052 109.899 253.959 110.654C255.167 111.56 256.98 111.711 258.038 110.805C262.57 107.182 266.196 110.503 268.462 113.22C271.181 116.39 274.203 118.051 277.829 119.259C279.642 119.863 281.454 121.825 283.418 120.617C286.138 118.957 281.454 117.447 282.965 115.485C285.231 114.126 287.346 119.863 289.461 115.636C291.425 111.711 289.159 109.597 285.987 107.937C285.08 107.484 284.325 106.729 283.418 106.276C281.605 105.37 281.001 104.012 282.361 102.351C283.721 100.691 285.231 100.993 286.591 102.351C287.8 103.408 288.555 105.068 289.915 105.672C291.425 106.276 292.785 109.144 294.447 107.333C296.26 105.37 298.224 102.955 298.375 99.9358C298.526 97.6714 295.958 98.2752 295.051 97.2185C291.274 93.1426 281.152 94.6522 283.872 84.8397C284.023 84.5378 283.267 83.783 282.663 83.4811C279.49 81.9715 277.375 79.2542 274.354 77.5936C269.217 74.7254 262.721 74.7254 258.944 68.536C256.829 65.0639 251.692 63.1014 246.707 63.1014C241.268 63.2524 235.678 64.1582 230.089 63.5543C225.254 62.9505 219.815 67.4793 218.909 72.0081C217.549 77.8956 223.29 76.084 225.556 77.8956C224.801 80.009 221.628 77.5936 221.93 80.3109C222.082 81.6696 223.743 81.6696 224.952 81.8205C234.319 83.934 234.319 83.934 229.938 91.9349C229.635 92.3878 229.635 93.1426 229.484 93.7464C228.729 95.8598 227.218 96.9166 225.254 96.0108C223.29 95.105 223.743 93.4445 224.65 91.9349C226.765 88.6137 224.046 87.4061 222.082 88.1609C215.585 90.4253 214.83 86.0474 213.47 81.8205C212.715 79.2542 213.017 76.386 209.844 74.7254C208.636 74.1216 206.521 69.2908 211.053 68.8379C215.434 68.3851 216.341 65.6678 218.758 62.3466C216.945 62.3466 215.887 62.3466 214.981 62.3466C213.772 62.3466 212.564 62.3466 211.657 61.2899C203.499 61.7428 202.14 63.4034 204.557 71.2533C205.463 74.2725 204.557 74.8764 201.988 74.7254C203.499 77.7446 198.363 81.9715 203.499 84.2359C205.916 85.2926 208.183 86.3493 208.032 89.2176C207.88 92.3878 204.708 92.2368 202.744 93.7464C202.14 91.9349 203.046 91.331 203.65 90.4253C204.859 88.4628 203.348 87.4061 202.14 86.5003C200.78 85.4436 199.269 83.934 197.305 85.1417C196.097 85.8965 194.737 86.9532 195.19 88.4628C197.758 96.3127 192.017 94.0483 188.543 93.7464C185.219 93.4445 181.442 92.8406 178.723 91.1801C173.133 87.8589 171.32 91.0291 169.507 95.256C170.263 95.8598 170.716 96.7656 170.414 97.6714C170.414 97.8223 170.111 97.9733 169.96 97.9733C169.658 97.2185 169.356 96.3127 169.054 95.5579C166.032 96.0108 164.371 92.5387 161.198 92.9916C157.119 93.7464 152.436 96.9166 150.472 89.5195C149.716 86.6513 145.335 87.8589 142.616 87.708C137.177 87.2551 132.04 82.1224 127.206 84.2359C122.976 85.8965 123.429 83.3301 122.371 81.0657C120.105 84.3869 118.141 87.8589 115.422 82.4244C115.12 81.8205 113.911 81.2167 113.458 81.3677C108.473 84.0849 102.581 81.3677 97.595 84.8397C90.7966 89.8214 83.696 88.7647 76.7466 84.6888C74.6315 83.4811 72.2143 82.1224 69.9481 82.4244C62.3943 83.1792 55.5959 78.8013 47.8911 79.4052C44.4163 79.7071 40.3373 79.2542 37.3157 77.8956C29.6109 74.5744 23.7189 78.3484 17.6759 81.3677C14.0501 83.1792 11.935 87.4061 6.94949 87.2551C5.74088 87.2551 4.07904 88.1609 4.07904 89.8214C3.92797 91.482 5.28765 92.2368 6.49626 92.9916C11.1796 95.5579 15.863 97.8223 21.1506 99.4829C17.827 102.049 14.9565 103.408 11.935 99.3319C11.1796 98.4262 10.4242 98.1243 9.3667 98.7281C6.64733 100.238 3.77689 101.596 1.05753 102.804C3.17259 108.691 8.15809 108.842 12.8414 109.446C14.9565 109.748 18.4313 107.786 18.5823 111.258C18.7334 114.126 14.8054 113.371 12.9925 114.579C12.3882 115.032 11.1796 114.579 10.7264 115.032C7.70487 117.447 3.32366 119.561 7.55379 124.391C12.5393 130.279 18.4313 134.808 27.0426 134.959C24.6254 141.601 18.5823 143.412 13.4458 146.281C12.0861 147.035 9.21562 147.488 10.5753 149.904C11.6328 151.715 13.4458 150.206 14.9565 149.602C22.9635 146.281 30.2152 141.601 37.0136 136.468C39.5819 134.506 41.5459 131.939 41.5459 128.316C41.5459 125.599 43.0566 123.938 45.6249 123.335C46.8335 125.75 43.9631 126.656 44.1142 128.467C44.2652 129.826 44.8695 132.392 45.6249 131.637C48.0421 129.524 51.9701 131.336 53.783 128.165C55.747 124.693 58.4664 124.844 61.4879 126.203C69.4949 129.524 78.4084 129.826 86.2643 133.751C88.5305 134.808 90.0412 135.11 90.1923 137.827C90.3434 140.544 97.7461 148.092 100.314 148.394C103.638 148.696 104.545 151.111 106.055 153.527C109.379 158.81 111.343 165.453 118.444 167.717C121.767 168.774 125.091 170.434 126.299 174.661C121.465 173.906 121.465 173.906 122.371 177.982C123.278 182.36 123.278 186.889 122.523 191.267C120.861 201.079 127.961 218.591 136.724 223.421C140.652 225.686 142.918 228.252 143.522 232.479C150.321 238.819 152.436 248.179 158.025 255.274C159.083 256.482 159.687 257.991 161.349 258.746C162.256 259.199 163.313 259.048 164.22 258.293C165.277 257.387 164.522 256.482 163.917 255.727C159.234 250.141 157.27 242.895 152.285 237.31C151.378 236.253 149.263 234.894 150.774 232.63C153.191 232.932 155.004 233.989 155.91 236.404C157.119 239.423 159.536 241.688 161.5 244.254C167.241 251.651 176.457 256.633 177.212 267.351C177.212 268.257 177.967 269.464 178.723 269.917C186.126 273.54 193.377 278.975 201.233 280.031C206.521 280.786 210.751 281.843 214.981 284.409C218.003 286.221 221.024 287.278 224.65 287.127C227.822 286.976 230.391 288.183 230.24 291.957C230.089 294.977 231.599 296.184 234.017 297.392C236.887 298.751 239.153 301.166 242.175 302.374C244.29 303.279 245.801 308.11 247.16 301.921C247.462 300.562 249.577 300.109 251.239 301.619C254.714 304.789 256.074 315.054 252.75 317.923C248.067 322.149 247.16 327.282 245.196 333.019C242.779 340.265 247.009 343.737 249.275 348.718C250.333 350.983 251.541 352.945 252.599 355.21C256.527 364.116 261.21 372.419 270.879 376.646C273.901 378.005 273.75 380.722 273.75 383.439C274.203 397.026 270.879 410.31 269.066 423.595C267.707 434.615 262.268 445.031 263.627 456.504C265.591 457.259 264.685 453.334 267.102 454.391C268.009 456.806 266.649 458.92 265.44 460.429C260.606 466.618 259.851 473.412 261.361 480.96C261.966 483.526 262.117 485.79 263.476 488.206C266.498 493.188 271.483 496.358 274.656 501.037C280.246 503.755 285.382 501.188 290.519 499.679C290.066 499.226 289.764 498.773 289.159 498.471C284.627 496.207 280.548 493.942 278.282 488.659C275.109 481.413 282.21 480.507 284.627 476.884C286.44 474.167 288.253 471.6 284.174 469.336C281.001 467.524 283.116 466.015 284.627 464.807C287.649 462.09 289.613 459.07 290.368 454.995C291.425 448.805 298.375 442.163 304.72 441.408C308.195 440.955 312.727 438.993 311.821 436.275C309.555 429.331 312.576 430.237 317.864 427.973C326.324 424.199 333.273 415.745 335.086 406.385C336.748 397.781 341.885 394.308 348.532 392.95C355.784 391.591 357.597 387.666 359.107 381.326C361.223 372.721 361.071 363.362 368.927 356.719C372.1 354.002 373.158 349.02 374.064 344.643C374.819 341.774 373.913 339.812 371.194 338.906Z" fill="#155DE9" fill-opacity="0.1"/>
<path d="M282.361 173.152C283.872 172.699 285.533 171.944 287.044 172.095C289.915 172.246 294.749 170.887 291.425 177.077C290.066 179.643 289.461 183.568 295.202 181.907C297.166 181.303 299.735 184.625 301.85 180.851C302.303 179.945 303.814 182.209 304.418 183.417C305.022 184.625 305.022 185.681 303.36 186.134C298.677 187.493 294.145 189.153 290.066 191.871C289.008 192.625 287.649 192.927 286.742 191.871C285.231 190.059 288.253 188.7 287.044 185.379C284.023 191.72 274.052 189.304 274.505 198.513C274.656 199.57 273.598 200.475 272.541 200.475C262.721 200.928 262.268 209.986 259.548 216.024C257.736 219.798 256.074 222.818 252.75 225.233C250.333 227.044 248.369 229.309 245.801 230.969C242.93 232.932 242.93 235.045 243.988 237.763C245.045 240.48 245.801 243.499 247.009 246.216C247.916 248.481 247.613 250.443 245.649 251.5C243.534 252.557 242.93 250.292 242.024 249.085C240.815 247.424 239.757 245.613 239.002 243.801C235.678 235.8 227.671 233.687 220.269 238.668C218.758 239.574 216.794 241.688 215.434 240.178C209.996 234.592 206.068 240.782 201.384 241.537C200.78 241.688 200.025 242.593 199.722 243.197C195.945 249.99 197.154 264.03 202.14 269.766C205.161 273.389 209.391 271.276 213.017 271.427C215.887 271.578 217.247 269.162 217.398 266.596C217.851 261.01 222.837 262.52 225.254 262.671C228.578 262.822 226.614 266.294 226.463 268.558C226.312 272.182 221.779 275.201 224.046 278.673C226.161 281.692 230.391 279.428 233.714 280.182C237.793 281.088 238.851 283.051 237.642 287.127C235.225 296.033 238.851 298.147 247.916 298.902C254.714 299.505 258.038 297.09 262.268 293.467C264.081 291.806 266.498 291.203 268.764 290.146C270.426 289.391 270.728 290.75 271.03 291.957L271.181 292.108C275.109 291.354 278.886 292.561 282.361 293.769C285.987 295.128 289.159 294.977 292.785 294.826C298.526 294.675 302.907 298.902 307.137 302.374C310.461 304.94 313.029 308.563 317.562 309.016C324.813 309.771 329.648 313.847 332.971 320.036C332.971 320.64 332.971 321.395 332.971 322.149C332.065 323.508 330.554 324.716 332.065 326.376C333.273 327.584 334.784 328.49 336.446 327.433C339.468 325.471 341.734 326.98 344 328.943C347.324 331.811 351.403 332.113 355.331 333.019C360.92 334.226 365.906 337.095 371.194 338.906C373.913 339.812 374.819 341.774 374.064 344.643C373.158 349.02 372.1 354.002 368.927 356.719C361.071 363.362 361.222 372.721 359.107 381.326C357.597 387.666 355.784 391.591 348.532 392.95C341.885 394.308 336.748 397.781 335.086 406.385C333.273 415.745 326.324 424.199 317.864 427.973C312.576 430.237 309.555 429.331 311.821 436.275C312.727 438.993 308.195 440.955 304.72 441.408C298.375 442.163 291.425 448.805 290.368 454.995C289.613 459.07 287.649 462.09 284.627 464.807C283.116 466.015 281.001 467.524 284.174 469.336C288.253 471.6 286.44 474.167 284.627 476.884C282.21 480.507 275.109 481.413 278.282 488.659C280.548 493.942 284.627 496.207 289.159 498.471C289.764 498.773 290.066 499.226 290.519 499.679C285.382 501.188 280.246 503.755 274.656 501.037C271.483 496.358 266.498 493.188 263.476 488.206C262.117 485.79 261.966 483.526 261.361 480.96C259.851 473.412 260.606 466.619 265.44 460.429C266.649 458.92 268.009 456.806 267.102 454.391C264.685 453.334 265.591 457.259 263.627 456.504C262.268 445.031 267.707 434.615 269.066 423.595C270.879 410.31 274.203 397.026 273.75 383.439C273.75 380.722 273.901 378.005 270.879 376.646C261.21 372.419 256.527 364.116 252.599 355.21C251.541 352.945 250.333 350.983 249.275 348.718C247.009 343.737 242.779 340.265 245.196 333.019C247.16 327.282 248.067 322.149 252.75 317.923C256.074 315.054 254.714 304.789 251.239 301.619C249.577 300.109 247.462 300.562 247.16 301.921C245.801 308.11 244.29 303.279 242.175 302.374C239.153 301.166 236.887 298.751 234.017 297.392C231.599 296.184 230.089 294.977 230.24 291.957C230.391 288.183 227.822 286.976 224.65 287.127C221.024 287.278 218.003 286.221 214.981 284.409C210.751 281.843 206.521 280.786 201.233 280.031C193.377 278.975 186.126 273.54 178.723 269.917C177.967 269.464 177.212 268.257 177.212 267.351C176.457 256.633 167.241 251.651 161.5 244.254C159.536 241.688 157.119 239.423 155.91 236.404C155.004 233.989 153.191 232.932 150.774 232.63C149.263 234.894 151.378 236.253 152.285 237.31C157.27 242.895 159.234 250.141 163.917 255.727C164.522 256.482 165.277 257.387 164.22 258.293C163.313 259.048 162.256 259.199 161.349 258.746C159.687 257.991 159.083 256.482 158.025 255.274C152.436 248.179 150.321 238.819 143.522 232.479C142.918 228.252 140.652 225.686 136.724 223.421C127.961 218.591 120.861 201.079 122.523 191.267C123.278 186.889 123.278 182.36 122.371 177.982C121.465 173.906 121.465 173.906 126.299 174.661C125.091 170.434 121.767 168.774 118.444 167.717C111.343 165.453 109.379 158.81 106.055 153.527C104.545 151.111 103.638 148.696 100.314 148.394C97.7461 148.092 90.3434 140.544 90.1923 137.827C90.0412 135.11 88.5305 134.808 86.2643 133.751C78.4084 129.826 69.4949 129.524 61.4879 126.203C58.4664 124.844 55.747 124.693 53.783 128.165C51.9701 131.336 48.0421 129.524 45.6249 131.637C44.8695 132.392 44.2652 129.826 44.1142 128.467C43.9631 126.656 46.8335 125.75 45.6249 123.335C43.0566 123.938 41.5459 125.599 41.5459 128.316C41.5459 131.939 39.5819 134.506 37.0136 136.468C30.2152 141.601 22.9635 146.281 14.9565 149.602C13.4458 150.206 11.6328 151.715 10.5753 149.904C9.21563 147.488 12.0861 147.035 13.4458 146.281C18.5823 143.412 24.6254 141.601 27.0426 134.959C18.4313 134.808 12.5393 130.279 7.55379 124.391C3.32366 119.561 7.70487 117.447 10.7264 115.032C11.1796 114.579 12.3882 115.032 12.9925 114.579C14.8054 113.371 18.7334 114.126 18.5823 111.258C18.4313 107.786 14.9565 109.748 12.8414 109.446C8.15809 108.842 3.17259 108.691 1.05753 102.804C3.77689 101.596 6.64733 100.238 9.3667 98.7281C10.4242 98.1243 11.1796 98.4262 11.935 99.3319C14.9565 103.408 17.827 102.049 21.1506 99.4829C15.863 97.8223 11.1796 95.5579 6.49626 92.9916C5.28765 92.2368 3.92797 91.482 4.07904 89.8214C4.07904 88.1609 5.74088 87.2551 6.94949 87.2551C11.935 87.4061 14.0501 83.1792 17.6759 81.3677C23.7189 78.3484 29.6109 74.5744 37.3157 77.8956C40.3373 79.2542 44.4163 79.7071 47.8911 79.4052C55.5959 78.8013 62.3943 83.1792 69.9481 82.4244C72.2143 82.1224 74.6315 83.4811 76.7466 84.6888C83.696 88.7647 90.7966 89.8214 97.595 84.8397C102.581 81.3677 108.473 84.0849 113.458 81.3677C113.911 81.2167 115.12 81.8205 115.422 82.4244C118.141 87.8589 120.105 84.3869 122.371 81.0657C123.429 83.3301 122.976 85.8965 127.206 84.2359C132.04 82.1224 137.177 87.2551 142.616 87.708C145.335 87.8589 149.716 86.6513 150.472 89.5195C152.436 96.9166 157.119 93.7464 161.198 92.9916C164.371 92.5387 166.032 96.0108 169.054 95.5579C169.356 96.3127 169.658 97.2185 169.96 97.9733C170.111 97.9733 170.414 97.8223 170.414 97.6714C170.716 96.7656 170.263 95.8598 169.507 95.256C171.32 91.0291 173.133 87.8589 178.723 91.1801C181.442 92.8406 185.219 93.4445 188.543 93.7464C192.017 94.0483 197.758 96.3127 195.19 88.4628C194.737 86.9532 196.097 85.8965 197.305 85.1417C199.269 83.934 200.78 85.4436 202.14 86.5003C203.348 87.4061 204.859 88.4628 203.65 90.4253C203.046 91.331 202.14 91.9349 202.744 93.7464C204.708 92.2368 207.88 92.3878 208.032 89.2176C208.183 86.3493 205.916 85.2926 203.499 84.2359C198.363 81.9715 203.499 77.7446 201.988 74.7254C204.557 74.8764 205.463 74.2725 204.557 71.2533C202.14 63.4034 203.499 61.7428 211.657 61.2899C212.564 62.3466 213.772 62.3466 214.981 62.3466C215.887 62.3466 216.945 62.3466 218.758 62.3466C216.341 65.6678 215.434 68.3851 211.053 68.8379C206.521 69.2908 208.636 74.1216 209.844 74.7254C213.017 76.386 212.715 79.2542 213.47 81.8205C214.83 86.0474 215.585 90.4253 222.082 88.1609C224.046 87.4061 226.765 88.6137 224.65 91.9349C223.743 93.4445 223.29 95.105 225.254 96.0108C227.218 96.9166 228.729 95.8598 229.484 93.7464C229.635 93.1426 229.635 92.3878 229.938 91.9349C234.319 83.934 234.319 83.934 224.952 81.8205C223.743 81.6696 222.082 81.6696 221.931 80.3109C221.628 77.5936 224.801 80.009 225.556 77.8956C223.29 76.084 217.549 77.8956 218.909 72.0081C219.815 67.4793 225.254 62.9505 230.089 63.5543C235.678 64.1582 241.268 63.2524 246.707 63.1014C251.692 63.1014 256.829 65.0639 258.944 68.536C262.721 74.7254 269.217 74.7254 274.354 77.5936C277.375 79.2542 279.49 81.9715 282.663 83.4811C283.267 83.783 284.023 84.5378 283.872 84.8397C281.152 94.6522 291.274 93.1426 295.051 97.2185C295.958 98.2752 298.526 97.6714 298.375 99.9358C298.224 102.955 296.26 105.37 294.447 107.333C292.785 109.144 291.425 106.276 289.915 105.672C288.555 105.068 287.8 103.408 286.591 102.351C285.231 100.993 283.721 100.691 282.361 102.351C281.001 104.012 281.606 105.37 283.418 106.276C284.325 106.729 285.08 107.484 285.987 107.937C289.159 109.597 291.425 111.711 289.461 115.636C287.346 119.863 285.231 114.126 282.965 115.485C281.454 117.447 286.138 118.957 283.418 120.617C281.454 121.825 279.642 119.863 277.829 119.259C274.203 118.051 271.181 116.39 268.462 113.22C266.196 110.503 262.57 107.182 258.038 110.805C256.98 111.711 255.167 111.56 253.959 110.654C253.052 109.899 253.052 108.993 253.505 107.937C254.261 106.427 255.772 105.823 257.131 106.276C264.836 108.691 265.289 101.294 268.613 97.9733C269.519 97.0675 269.368 95.105 268.16 94.0483C263.174 90.1233 258.189 86.1984 253.203 82.2734C251.995 81.3676 250.484 82.1225 249.124 82.5753C246.103 83.6321 243.081 84.6888 239.757 84.2359C241.268 86.3493 246.405 87.2551 242.024 91.331C241.721 91.633 241.873 92.5387 242.024 92.9916C243.685 99.03 241.419 102.2 235.225 100.992C230.844 100.087 228.88 101.445 227.974 105.521C227.218 109.295 225.858 112.616 221.024 112.315C220.722 112.315 220.118 112.315 219.967 112.616C216.643 118.806 209.24 121.372 206.672 128.618C204.859 134.053 209.996 133.6 210.902 136.468C211.204 136.77 211.506 137.223 211.808 137.676C211.808 139.336 211.657 141.45 213.923 141.148C219.967 140.393 224.197 144.469 229.182 146.432C232.355 147.639 234.772 150.96 239.153 148.998C241.117 148.243 242.175 150.809 241.873 152.772C241.419 155.489 241.721 158.056 243.534 160.169C245.196 161.98 246.707 164.698 250.031 163.188C253.656 161.528 251.39 159.263 251.088 156.999C250.635 153.829 249.426 150.809 254.261 148.847C259.246 146.733 255.923 142.658 254.261 139.638C252.599 136.77 247.916 134.506 254.412 131.486C256.527 130.581 254.563 127.26 253.959 125.448C252.297 120.164 254.563 119.863 259.095 119.108C266.649 117.9 270.879 123.486 276.62 125.901C278.131 126.505 277.375 128.467 277.678 129.826C278.282 132.543 279.49 135.562 282.21 135.713C284.627 135.864 287.497 134.808 288.706 131.637C290.217 127.562 292.332 128.92 293.994 131.637C295.504 133.902 296.864 136.468 298.224 138.884C299.432 148.243 309.252 148.847 313.936 154.583C317.41 158.961 316.806 162.282 311.821 164.698C305.627 167.717 299.886 169.529 292.936 168.472C289.31 168.019 285.08 169.679 282.21 173.001L282.361 173.152ZM282.361 173.152C281.908 174.208 281.001 174.359 279.944 174.359C281.001 174.359 281.908 174.057 282.361 173.152Z" stroke="#155DE9" stroke-opacity="0.1" stroke-miterlimit="10" stroke-linecap="round" stroke-linejoin="round"/>
<path d="M604.606 317.319H604.455H604.606Z" fill="#155DE9" fill-opacity="0.1" stroke="#155DE9" stroke-opacity="0.1" stroke-miterlimit="10" stroke-linecap="round" stroke-linejoin="round"/>
<path d="M397.632 82.8773C400.956 79.1032 403.222 75.7821 407.15 80.4619C408.056 81.6696 409.718 81.8205 410.927 80.6129C412.135 79.5561 411.531 78.3484 410.927 77.2917C409.718 75.4802 410.473 73.8196 411.229 72.1591C412.739 69.2908 411.531 67.7812 408.207 67.0264C414.25 67.3283 413.797 60.5351 418.48 59.6294C415.308 57.5159 415.308 57.5159 417.725 55.2515C418.631 54.3457 418.178 53.44 417.574 52.5342C416.516 50.7227 415.459 48.9112 414.401 47.2506C415.157 46.3448 415.912 46.6468 416.818 46.7977C418.631 47.2506 420.898 47.2506 421.502 45.2881C422.257 43.0237 419.236 43.4766 418.48 42.4199C417.121 40.1555 415.912 38.042 412.89 38.9478C412.89 38.193 412.588 37.2872 412.89 36.6834C414.552 33.6642 416.818 29.7392 419.085 28.5315C426.034 24.9085 430.717 18.4172 438.271 15.398C428.451 12.3788 419.085 14.6432 410.02 17.9643L409.869 17.8133C409.567 16.1528 411.984 14.4922 409.869 12.8316C407.905 11.322 406.092 12.0768 404.128 12.8316C402.768 13.2845 401.409 13.7374 400.2 14.0393C399.747 14.0393 399.445 14.1903 398.992 14.1903C393.704 10.8692 387.812 14.3412 381.769 12.3788C388.114 9.81244 394.308 10.8692 400.351 11.1711C403.675 9.9634 407.905 11.473 411.38 6.94419C404.883 7.69899 400.804 4.07594 396.272 2.86826C386.15 0.301935 375.273 -0.603828 364.546 1.9625C363.64 2.11346 362.129 1.9625 361.978 3.01922C361.525 7.09515 359.259 4.98171 357.295 4.83075C351.856 4.07594 346.266 1.81154 341.129 5.58555C341.129 8.00091 345.964 7.84995 344 10.5672C342.338 12.9826 339.619 11.473 337.353 10.5672C336.144 9.9634 334.633 9.66148 333.274 9.51052C331.158 9.2086 328.439 7.24611 327.079 10.7182C320.432 9.2086 314.087 9.2086 307.44 11.322C300.49 13.4355 295.202 18.8701 288.253 20.9835C286.742 21.4364 284.325 22.0402 284.023 24.9085C285.08 25.0594 285.987 25.2104 286.893 25.3614C287.951 25.5123 289.461 24.9085 290.066 26.4181C290.519 27.7767 289.159 28.5315 288.404 29.4373C287.497 30.494 286.138 31.3998 284.778 31.2488C280.397 30.9469 276.62 33.5132 272.39 33.9661C270.879 34.1171 268.915 34.7209 268.915 36.8343C268.915 38.7968 270.879 38.6459 272.088 39.0988C276.318 41.0612 281.001 41.0612 286.591 40.9103C281.908 45.2881 277.073 40.4574 272.994 43.1747C281.303 50.4208 281.303 50.2698 290.066 49.515C293.843 49.2131 297.771 48.9112 301.548 49.9679C311.821 52.9871 317.713 62.3466 315.749 73.0648C315.447 74.4235 316.051 75.4802 316.957 76.235C317.713 76.8388 318.921 77.5936 319.677 76.8388C326.022 69.5928 325.569 78.0465 328.288 80.009C326.475 81.6696 324.813 81.0657 323.302 81.2167C321.943 81.3677 320.281 80.7638 319.375 82.1225C318.921 82.7263 318.921 83.783 319.677 84.2359C321.187 85.2926 322.849 85.1417 324.36 84.6888C326.324 84.0849 328.59 81.3677 329.95 84.2359C331.31 86.9532 328.439 88.9157 326.324 90.2743C324.36 91.482 322.245 92.3878 322.547 95.105C323 101.143 324.058 107.031 328.59 111.711C328.439 114.73 331.31 115.938 332.216 118.504C334.331 124.089 342.791 129.071 348.683 128.769C349.892 128.769 351.403 128.618 351.856 127.411C353.971 121.976 356.237 116.541 357.899 110.805C358.654 108.239 365.604 100.842 367.115 102.2C372.553 106.88 374.97 100.842 376.632 98.8791C381.165 93.5955 387.057 92.0858 393.1 91.331C399.294 90.5762 403.373 86.8022 408.811 84.0849C405.337 81.0657 401.862 81.9715 397.632 82.8773ZM398.84 14.6432C397.934 15.0961 397.179 15.6999 395.819 16.4547C396.574 14.3412 397.783 14.7941 398.84 14.6432Z" fill="#155DE9" fill-opacity="0.1"/>
<path d="M410.02 17.9643C419.085 14.6432 428.451 12.3788 438.271 15.398C430.717 18.4172 426.034 24.9085 419.085 28.5315C416.818 29.7392 414.552 33.6642 412.89 36.6834C412.588 37.2872 412.89 38.193 412.89 38.9478C415.912 38.042 417.121 40.1555 418.48 42.4199C419.236 43.4766 422.257 43.0237 421.502 45.2881C420.898 47.2506 418.631 47.2506 416.818 46.7977C415.912 46.6468 415.157 46.3448 414.401 47.2506C415.459 48.9112 416.516 50.7227 417.574 52.5342C418.178 53.44 418.631 54.3457 417.725 55.2515C415.308 57.5159 415.308 57.5159 418.48 59.6294C413.797 60.5351 414.25 67.3283 408.207 67.0264C411.531 67.7812 412.739 69.2908 411.229 72.1591C410.473 73.8196 409.718 75.4802 410.927 77.2917C411.531 78.3484 412.135 79.5561 410.927 80.6129C409.718 81.8205 408.056 81.6696 407.15 80.4619C403.222 75.7821 400.956 79.1033 397.632 82.8773C401.862 81.9715 405.337 81.0657 408.811 84.0849C403.373 86.8022 399.294 90.5762 393.1 91.331C387.057 92.0858 381.165 93.5955 376.632 98.8791C374.97 100.842 372.553 106.88 367.115 102.2C365.604 100.842 358.654 108.239 357.899 110.805C356.237 116.541 353.971 121.976 351.856 127.411C351.403 128.618 349.892 128.769 348.683 128.769C342.791 129.071 334.331 124.089 332.216 118.504C331.31 115.938 328.439 114.73 328.59 111.711C324.058 107.031 323 101.143 322.547 95.105C322.245 92.3878 324.36 91.482 326.324 90.2743C328.439 88.9157 331.31 86.9532 329.95 84.2359C328.59 81.3677 326.324 84.0849 324.36 84.6888C322.849 85.1417 321.187 85.2926 319.677 84.2359C318.921 83.783 318.921 82.7263 319.375 82.1225C320.281 80.7638 321.943 81.3677 323.302 81.2167C324.813 81.0657 326.475 81.6696 328.288 80.009C325.569 78.0465 326.022 69.5927 319.677 76.8388C318.921 77.5936 317.713 76.8388 316.957 76.235C316.051 75.4802 315.447 74.4235 315.749 73.0648C317.713 62.3466 311.821 52.9871 301.548 49.9679C297.771 48.9112 293.843 49.2131 290.066 49.515C281.303 50.2698 281.303 50.4208 272.994 43.1747C277.073 40.4574 281.908 45.2881 286.591 40.9103C281.001 41.0612 276.318 41.0612 272.088 39.0988C270.879 38.6459 268.915 38.7968 268.915 36.8343C268.915 34.7209 270.879 34.1171 272.39 33.9661C276.62 33.5132 280.397 30.9469 284.778 31.2488C286.138 31.3998 287.497 30.494 288.404 29.4373C289.159 28.5315 290.519 27.7767 290.066 26.4181C289.461 24.9085 287.951 25.5123 286.893 25.3614C285.987 25.2104 285.08 25.0594 284.023 24.9085C284.325 22.0402 286.742 21.4364 288.253 20.9835C295.202 18.8701 300.49 13.4355 307.44 11.322C314.087 9.2086 320.432 9.2086 327.079 10.7182C328.439 7.24611 331.158 9.2086 333.274 9.51052C334.633 9.66148 336.144 9.9634 337.353 10.5672C339.619 11.473 342.338 12.9826 344 10.5672C345.964 7.84995 341.129 8.00091 341.129 5.58555C346.266 1.81154 351.856 4.07594 357.295 4.83075C359.259 4.98171 361.525 7.09515 361.978 3.01922C362.129 1.9625 363.64 2.11346 364.546 1.9625C375.273 -0.603828 386.15 0.301935 396.272 2.86826C400.804 4.07594 404.883 7.69899 411.38 6.94419C407.905 11.473 403.675 9.9634 400.351 11.1711C394.308 10.8692 388.114 9.81244 381.769 12.3788C387.812 14.3412 393.704 10.8692 398.992 14.1903C399.445 14.1903 399.747 14.0393 400.2 14.0393C401.409 13.7374 402.768 13.2845 404.128 12.8316C406.092 12.0768 407.905 11.322 409.869 12.8316C411.984 14.4922 409.567 16.1528 409.869 17.8133L410.02 17.9643ZM410.02 17.9643C409.567 18.4172 409.265 18.7191 408.811 19.172M398.84 14.6432C397.934 15.0961 397.179 15.6999 395.819 16.4547C396.574 14.3412 397.783 14.7941 398.84 14.6432Z" stroke="#155DE9" stroke-opacity="0.1" stroke-miterlimit="10" stroke-linecap="round" stroke-linejoin="round"/>
<path d="M898.297 392.346C895.88 391.591 894.369 389.478 894.218 386.761C894.067 384.496 893.01 382.232 890.895 382.232C882.888 382.534 884.247 376.193 883.794 371.966C883.643 370.004 883.945 368.645 881.83 367.739C878.96 368.645 877.6 367.287 877.147 364.72C876.693 362.003 878.657 357.172 874.125 357.776C870.348 358.229 873.37 362.456 873.219 365.022C873.068 369.098 872.766 373.476 869.291 376.042C866.42 378.307 864.456 374.382 861.888 373.627C860.075 373.174 858.413 372.419 856.903 371.664C853.579 370.155 852.975 368.343 856.6 366.079C858.262 365.173 861.435 363.06 859.622 362.003C855.543 359.588 850.406 358.833 845.723 357.474C845.119 362.456 838.471 363.362 838.32 368.796C838.169 371.815 836.809 371.966 834.543 369.551C830.464 365.173 827.292 365.777 824.27 370.91C823.061 372.872 822.91 376.948 818.68 373.929C817.925 373.325 816.867 374.835 816.716 375.74C815.81 384.043 809.616 384.798 803.271 385.251C797.228 385.704 792.242 393.101 792.242 398.988C792.242 403.517 795.566 406.536 795.415 410.763C795.415 411.669 795.264 412.424 795.264 413.329C795.415 413.631 795.566 414.084 795.717 414.386C796.019 414.839 796.321 415.141 796.472 415.594C797.379 419.066 801.911 422.085 797.076 426.161C796.019 427.067 798.134 428.426 799.192 429.18C803.724 429.029 808.256 429.482 812.486 426.765C814.148 425.708 816.716 426.614 818.68 427.822C819.889 427.822 820.946 427.671 822.155 427.671C822.155 421.481 826.234 421.179 830.917 421.632C836.205 417.858 841.795 419.972 847.385 420.878L847.838 421.028C849.651 421.632 850.708 422.689 850.708 424.652C853.881 427.52 856.903 426.765 859.622 423.444C860.679 426.01 857.658 427.671 859.471 429.633C860.831 430.086 861.737 429.029 862.794 428.727C865.816 427.52 867.78 427.973 866.722 431.898C864.758 438.691 870.802 439.446 874.276 442.314C877.902 445.182 878.96 440.804 881.679 440.049C883.492 445.635 885.607 443.069 889.837 441.71C896.787 439.597 896.635 434.313 898.599 429.784C898.751 429.633 898.751 429.482 898.902 429.18C901.621 420.274 908.722 412.575 904.34 401.706C902.83 398.233 903.283 394.007 898.297 392.346Z" fill="#155DE9" fill-opacity="0.1" stroke="#155DE9" stroke-opacity="0.1" stroke-miterlimit="10" stroke-linecap="round" stroke-linejoin="round"/>
<path d="M206.219 29.1354C208.032 29.2863 209.693 29.2863 211.96 29.4373C209.24 31.3998 208.032 33.3623 211.506 35.0228C214.075 36.2305 217.7 38.3439 219.362 37.4382C226.463 33.3623 226.312 38.344 226.916 42.8728C225.254 43.4766 221.931 41.967 221.931 45.2881C221.931 48.1564 224.801 47.2506 226.614 47.5525C230.391 48.1564 234.017 49.3641 237.945 47.8545C239.909 47.0997 241.873 47.8545 242.93 50.8737C238.549 49.9679 234.923 51.6285 231.297 52.8361C227.822 53.8929 224.348 53.289 221.779 50.8737C215.736 44.8352 208.183 44.8352 200.176 43.6276C200.78 48.3073 203.65 49.2131 206.672 49.8169C209.542 49.515 211.506 51.0246 212.111 53.591C213.319 57.9688 216.794 57.6669 220.118 58.4217C226.916 59.9313 233.866 57.6669 240.664 59.3274C242.628 59.7803 245.952 60.837 246.707 57.365C247.613 53.1381 248.369 49.2131 253.505 48.0054C254.11 47.8545 255.167 45.4391 254.714 44.9862C251.39 40.4574 255.167 40.4574 257.887 39.4007C260.304 38.4949 262.872 36.9853 263.174 34.1171C263.325 31.5507 260.002 32.6075 258.944 31.3998C263.023 27.9277 268.764 29.5883 272.843 26.72C280.246 21.2854 289.159 18.1153 297.015 13.4355C298.224 12.6807 299.886 12.3788 299.886 10.7182C300.037 8.75572 298.073 9.05764 296.864 8.60476C286.44 5.73651 275.562 6.49131 264.987 4.83075C264.081 4.83075 263.325 4.83075 262.419 4.98171C258.491 4.98171 254.412 4.98171 250.484 5.13267C239.002 8.00092 227.218 10.2653 215.434 14.7941C219.513 14.6432 219.06 19.3229 222.384 19.9268C223.441 20.0777 224.499 20.3797 224.348 21.5874C224.197 22.6441 223.139 23.097 222.082 23.2479C219.967 23.7008 217.7 22.946 216.492 21.4364C211.808 16.0018 208.032 16.1528 203.952 22.1912C203.046 23.5498 201.384 24.3046 202.14 26.1162C202.895 27.6258 204.104 28.9844 206.219 29.1354Z" fill="#155DE9" fill-opacity="0.1" stroke="#155DE9" stroke-opacity="0.1" stroke-miterlimit="10" stroke-linecap="round" stroke-linejoin="round"/>
<path d="M896.182 344.643C897.542 344.944 899.053 344.793 900.261 343.888C902.376 342.076 902.074 340.869 899.204 340.718C893.765 343.586 887.42 342.982 883.19 340.114C877.449 336.189 871.406 334.226 865.061 332.113C862.039 331.056 859.471 330.452 856.903 333.471C854.485 336.189 852.219 335.585 851.766 331.66C851.313 327.886 848.593 327.282 845.572 327.584C843.91 327.735 842.097 330.15 843.457 330.754C846.629 332.415 845.27 334.83 845.874 336.944C846.176 338 846.78 339.359 847.687 338.755C853.277 335.283 857.054 340.869 861.888 341.472C865.363 341.774 867.327 344.643 863.248 347.813C861.888 348.869 860.831 351.436 862.946 350.832C868.082 349.171 871.557 354.153 876.089 353.247C878.658 350.53 881.075 347.058 885.456 350.379C886.967 351.587 888.175 353.247 889.686 354.606C893.312 358.078 896.484 358.229 899.657 355.21C897.693 354.304 895.276 354.304 893.614 352.643C892.103 350.983 890.139 349.624 891.197 347.058C892.103 344.341 893.916 344.039 896.182 344.643Z" fill="#155DE9" fill-opacity="0.1" stroke="#155DE9" stroke-opacity="0.1" stroke-miterlimit="10" stroke-linecap="round" stroke-linejoin="round"/>
<path d="M515.018 44.9862C515.924 46.6468 518.946 47.4016 521.514 45.741C525.895 43.0237 529.521 38.042 535.866 41.0612C536.622 41.3632 538.132 40.3064 539.19 39.8535C540.398 39.2497 542.211 38.7968 541.909 37.1363C541.607 35.1738 539.794 35.6267 538.435 35.7776C536.319 35.7776 534.355 35.9286 532.543 33.2113C539.19 33.3623 544.326 30.645 549.765 28.9844C550.974 28.5315 552.787 27.9277 552.636 26.2671C552.333 24.0027 550.067 24.3046 548.708 24.4556C541.456 25.5123 533.298 21.2854 527.104 27.9277C521.665 25.2104 516.075 31.2488 510.637 27.4748C508.975 26.4181 507.162 26.72 505.651 28.2296C504.14 29.7392 505.5 31.0978 505.953 32.6075C507.766 37.8911 512.752 40.3064 515.018 44.9862Z" fill="#155DE9" fill-opacity="0.1" stroke="#155DE9" stroke-opacity="0.1" stroke-miterlimit="10" stroke-linecap="round" stroke-linejoin="round"/>
<path d="M804.177 306.45C801.307 305.846 800.702 308.563 799.343 310.073C796.019 314.3 786.652 319.885 782.271 320.489C780.005 320.791 779.098 322.904 780.005 324.565C782.573 329.094 782.573 335.736 789.523 336.793C793.299 335.132 796.623 338.604 800.249 337.547C801.911 332.717 802.515 327.282 807.198 324.112C808.256 323.357 808.558 322.753 807.501 321.697C802.213 317.017 805.386 313.998 810.22 310.525C806.594 310.978 805.083 308.865 804.177 306.45Z" fill="#155DE9" fill-opacity="0.1" stroke="#155DE9" stroke-opacity="0.1" stroke-miterlimit="10" stroke-linecap="round" stroke-linejoin="round"/>
<path d="M608.685 365.022C604.153 365.928 602.642 371.513 598.11 372.117C594.333 372.57 593.879 374.533 594.635 377.552C596.146 383.59 593.577 389.931 596.146 395.969C596.146 397.932 594.333 400.8 597.958 401.253C602.037 401.706 609.138 396.422 609.138 392.195C609.289 384.194 610.8 376.797 614.275 369.551C615.483 367.136 613.821 365.324 612.16 363.664C609.893 361.248 609.893 364.72 608.685 365.022Z" fill="#155DE9" fill-opacity="0.1" stroke="#155DE9" stroke-opacity="0.1" stroke-miterlimit="10" stroke-linecap="round" stroke-linejoin="round"/>
<path d="M625.303 79.4052C627.418 80.6129 629.835 81.2167 632.555 82.4244C631.799 72.461 634.066 64.1582 642.375 59.3275C648.267 56.0063 653.705 51.0246 661.561 51.9304C664.583 52.2323 668.058 51.4775 666.396 46.6468C663.525 45.892 660.957 46.9487 658.238 47.4016C656.425 49.2131 654.763 50.4208 651.893 49.515C647.511 48.0054 644.037 49.666 641.317 53.289C640.411 54.4967 639.806 56.6102 637.691 55.7044C634.67 54.4967 633.31 56.6102 631.497 58.1198C627.871 60.988 626.059 65.0639 623.339 68.687C619.864 72.9139 620.469 76.5369 625.303 79.4052Z" fill="#155DE9" fill-opacity="0.1" stroke="#155DE9" stroke-opacity="0.1" stroke-miterlimit="10" stroke-linecap="round" stroke-linejoin="round"/>
<path d="M461.537 156.999C459.12 158.056 461.99 161.528 460.177 163.49C465.767 166.056 460.479 166.509 459.422 167.868C458.969 168.472 458.515 169.076 457.307 170.585C463.803 168.925 468.789 166.207 474.529 166.358C477.4 166.509 479.364 160.169 476.947 158.659C473.774 156.546 472.565 152.923 469.544 150.96C468.033 150.206 467.58 148.696 467.127 147.035C464.256 145.073 466.825 143.865 467.58 142.356C467.882 138.884 461.235 139.487 463.35 135.11C462.594 135.11 461.688 135.11 460.933 134.959C460.63 135.261 460.328 135.411 459.875 135.411C459.422 135.713 458.969 136.015 458.666 136.317C457.911 137.072 457.307 137.978 456.551 138.733C454.89 144.167 458.818 147.79 461.386 151.564C462.897 153.678 466.825 154.734 461.537 156.999Z" fill="#155DE9" fill-opacity="0.1" stroke="#155DE9" stroke-opacity="0.1" stroke-miterlimit="10" stroke-linecap="round" stroke-linejoin="round"/>
<path d="M856.147 220.553C856.147 220.553 855.09 220.402 854.485 220.251C846.629 219.345 842.399 224.025 838.773 229.913C840.586 229.611 840.586 229.611 840.737 230.818C841.191 233.687 842.55 234.291 844.665 232.026C844.816 230.215 846.327 230.215 847.536 229.46C851.464 227.195 856.298 228.252 859.924 225.384C861.737 222.516 865.363 223.27 867.931 221.61C869.291 220.704 870.65 220.1 870.802 218.44C870.953 215.571 872.161 213.156 873.672 210.741C875.485 207.721 874.881 203.344 872.01 202.287C868.384 200.777 867.478 205.155 867.478 207.721C867.478 215.571 857.658 214.364 856.147 220.553Z" fill="#155DE9" fill-opacity="0.1" stroke="#155DE9" stroke-opacity="0.1" stroke-miterlimit="10" stroke-linecap="round" stroke-linejoin="round"/>
<path d="M435.552 109.446C435.552 108.993 435.401 108.541 435.401 108.088C434.796 107.333 434.192 106.729 433.588 105.974C433.437 105.068 433.135 104.163 432.984 103.408C432.681 102.804 432.53 102.049 432.228 101.445C426.94 102.804 420.897 99.7848 416.365 105.068C415.157 106.427 414.552 104.314 413.646 103.71C411.833 102.502 409.869 100.691 407.905 102.955C405.941 105.37 407.754 107.031 409.869 107.937C410.926 108.39 411.38 109.144 411.833 110.05C413.344 113.522 419.387 115.938 422.408 113.522C426.185 110.503 430.264 111.107 434.343 110.956C434.796 110.352 435.25 109.899 435.552 109.446Z" fill="#155DE9" fill-opacity="0.1" stroke="#155DE9" stroke-opacity="0.1" stroke-miterlimit="10" stroke-linecap="round" stroke-linejoin="round"/>
<path d="M811.127 342.68C812.94 341.321 813.091 338.151 816.263 339.359C818.378 340.114 819.436 338 818.529 336.491C816.112 332.566 819.134 330.754 821.249 328.641C819.436 327.433 818.076 328.339 816.867 328.792C815.81 329.245 814.45 329.999 813.997 328.188C813.695 326.829 814.752 326.074 815.961 325.622C817.774 325.018 819.436 325.018 821.4 325.169C823.817 325.471 825.328 324.263 825.932 320.64C822.457 322.904 819.738 323.508 816.414 322.753C814.148 322.149 812.184 323.659 810.824 326.376C808.105 331.66 808.709 336.793 811.127 342.68Z" fill="#155DE9" fill-opacity="0.1" stroke="#155DE9" stroke-opacity="0.1" stroke-miterlimit="10" stroke-linecap="round" stroke-linejoin="round"/>
<path d="M450.659 162.886C453.832 162.886 456.702 158.81 456.853 153.98C457.005 150.96 455.343 149.602 452.472 149.451C448.846 149.3 443.408 156.999 444.465 161.981C445.372 166.358 448.998 160.924 450.659 162.886Z" fill="#155DE9" fill-opacity="0.1" stroke="#155DE9" stroke-opacity="0.1" stroke-miterlimit="10" stroke-linecap="round" stroke-linejoin="round"/>
<path d="M880.621 173.755C879.111 167.566 877.6 161.226 876.089 154.885C875.485 155.187 875.032 155.338 874.881 155.64C874.125 157.301 873.37 158.81 872.766 160.471C876.542 166.358 873.219 172.548 873.219 178.586C873.219 183.266 872.614 183.266 878.204 183.568C874.881 177.378 875.485 174.812 880.621 173.755Z" fill="#155DE9" fill-opacity="0.1" stroke="#155DE9" stroke-opacity="0.1" stroke-miterlimit="10" stroke-linecap="round" stroke-linejoin="round"/>
<path d="M242.024 108.691C242.024 108.541 241.873 108.39 241.721 108.239C235.376 103.257 232.053 104.012 228.88 110.352C226.614 114.881 231.75 114.881 231.599 119.108C235.981 112.918 236.283 112.616 239.606 113.371C241.873 113.824 244.743 115.938 245.952 113.22C247.16 110.805 242.779 110.805 242.024 108.691Z" fill="#155DE9" fill-opacity="0.1" stroke="#155DE9" stroke-opacity="0.1" stroke-miterlimit="10" stroke-linecap="round" stroke-linejoin="round"/>
<path d="M774.264 347.209C781.062 349.171 788.163 349.322 794.81 351.889C796.774 352.643 797.076 350.077 797.983 349.02C794.961 349.775 793.451 346.756 790.882 346.454C788.314 347.36 787.257 342.982 785.897 344.039C780.911 348.115 776.983 343.586 772.602 342.982C771.091 345.095 771.847 346.605 774.264 347.209Z" fill="#155DE9" fill-opacity="0.1" stroke="#155DE9" stroke-opacity="0.1" stroke-miterlimit="10" stroke-linecap="round" stroke-linejoin="round"/>
<path d="M868.838 195.947C867.176 196.249 866.874 198.513 867.931 200.023C869.291 201.683 870.197 200.324 871.255 199.268C872.463 198.211 873.823 197.154 875.485 198.211C879.111 200.324 880.319 195.041 883.492 195.343C883.643 195.343 883.794 192.625 882.283 192.625C878.204 192.625 876.089 189.757 873.068 186.738C871.859 190.663 873.974 195.041 868.838 195.947Z" fill="#155DE9" fill-opacity="0.1" stroke="#155DE9" stroke-opacity="0.1" stroke-miterlimit="10" stroke-linecap="round" stroke-linejoin="round"/>
<path d="M813.091 285.617C815.81 288.032 819.436 288.183 822.759 289.24C822.91 286.523 820.493 286.221 819.587 284.711C818.227 285.013 816.112 286.221 816.565 283.202C816.716 281.843 817.774 280.786 818.378 279.579C819.436 277.465 818.076 275.352 817.774 273.389C817.623 272.333 815.357 272.333 813.997 272.785C811.429 273.691 812.637 275.956 812.184 277.767C811.429 280.635 811.731 283.051 813.091 285.617Z" fill="#155DE9" fill-opacity="0.1" stroke="#155DE9" stroke-opacity="0.1" stroke-miterlimit="10" stroke-linecap="round" stroke-linejoin="round"/>
<path d="M818.529 305.544C819.738 305.544 821.098 305.242 821.702 306.299C825.328 312.639 827.594 308.11 830.162 305.242C829.709 303.581 829.558 301.77 828.954 300.109C828.047 297.392 826.99 299.958 825.932 300.26C824.421 302.374 822.457 302.827 820.04 301.77C819.587 302.676 818.831 302.977 817.774 302.977C817.925 303.883 815.206 305.544 818.529 305.544Z" fill="#155DE9" fill-opacity="0.1" stroke="#155DE9" stroke-opacity="0.1" stroke-miterlimit="10" stroke-linecap="round" stroke-linejoin="round"/>
<path d="M201.686 56.3082C202.593 59.1765 205.312 57.9688 207.427 58.2707C208.334 58.4217 209.391 58.2707 210.449 58.2707C211.506 54.0438 207.88 52.9871 205.463 51.0246C203.348 52.3833 200.629 53.1381 201.686 56.3082Z" fill="#155DE9" fill-opacity="0.1" stroke="#155DE9" stroke-opacity="0.1" stroke-miterlimit="10" stroke-linecap="round" stroke-linejoin="round"/>
<path d="M497.946 149.149C500.817 148.394 500.968 145.375 502.025 142.507C498.55 141.752 496.435 142.507 496.133 145.828C495.982 147.337 496.738 149.451 497.946 149.149Z" fill="#155DE9" fill-opacity="0.1" stroke="#155DE9" stroke-opacity="0.1" stroke-miterlimit="10" stroke-linecap="round" stroke-linejoin="round"/>
<path d="M829.709 223.723C829.558 223.723 829.558 223.874 829.558 224.025C829.709 224.025 829.709 223.874 829.709 223.723Z" fill="#155DE9" fill-opacity="0.1" stroke="#155DE9" stroke-opacity="0.1" stroke-miterlimit="10" stroke-linecap="round" stroke-linejoin="round"/>
<path d="M120.559 72.461C123.127 74.5744 125.242 76.386 129.623 75.6312C134.76 74.5744 136.27 69.1399 141.558 67.7812C141.407 70.3475 135.364 73.5177 142.162 74.5744C143.371 74.7254 142.314 75.7821 141.86 76.386C138.839 79.4052 141.86 78.8013 143.371 79.1032C146.544 79.7071 150.018 77.7446 153.191 80.4619C151.227 82.1225 149.716 80.7638 148.357 80.6129C145.939 80.4619 142.465 80.6129 142.162 82.8773C141.86 85.5945 145.184 86.0474 147.601 86.3493C150.169 86.5003 152.738 86.3493 154.853 88.6138C157.572 91.482 160.594 91.482 164.22 89.8214C169.054 87.557 173.888 84.6888 179.478 88.7647C181.14 90.1234 186.126 88.0099 185.974 87.708C181.14 81.0657 190.658 86.9532 189.449 83.934C188.996 82.2734 187.787 81.3677 186.579 80.7638C177.665 76.235 177.665 76.386 178.421 66.4226C178.572 64.4601 177.363 63.5543 176.003 63.7053C173.586 64.0072 170.867 64.3091 168.903 65.5168C167.09 66.7245 169.205 68.687 169.658 70.3475C169.96 71.5552 170.716 73.0648 169.356 73.5177C167.543 74.2725 167.241 72.31 166.637 71.1023C165.579 68.9889 165.428 64.913 161.802 69.1399C161.047 70.1966 160.594 69.1399 160.14 68.536C158.328 66.2716 155.91 66.4226 153.493 67.4793C150.925 68.687 147.148 67.1774 147.148 66.1207C147.299 59.7803 143.522 60.6861 139.745 61.4409C137.781 61.8938 136.875 60.5351 135.515 59.6294C130.076 55.2515 124.184 57.063 122.523 63.4034C122.371 64.1582 121.616 64.762 121.314 65.5168C120.105 67.7812 117.537 70.0456 120.559 72.461Z" fill="#155DE9" fill-opacity="0.1" stroke="#155DE9" stroke-opacity="0.1" stroke-miterlimit="10" stroke-linecap="round" stroke-linejoin="round"/>
<path d="M141.709 52.9871C142.767 55.8554 145.486 56.0063 148.205 55.4025C149.263 55.2515 150.321 54.7986 150.774 56.0063C152.436 60.3842 155.608 59.0255 158.781 58.4217C162.558 57.6669 165.881 55.1005 170.414 56.7611C172.831 57.6669 175.55 54.7986 175.852 52.2323C176.154 49.515 173.737 50.5717 171.924 50.5717C170.111 50.7227 168.45 49.666 168.147 47.5525C167.845 46.1939 168.45 43.7785 165.73 44.3824C163.766 44.8352 162.709 46.1939 163.766 48.4583C164.371 49.9679 164.068 51.1756 162.407 51.7794C161.198 52.2323 159.838 52.2323 159.234 51.0246C157.27 47.0996 152.587 48.9112 149.716 46.4958C148.054 45.4391 141.105 51.0246 141.709 52.9871Z" fill="#155DE9" fill-opacity="0.1" stroke="#155DE9" stroke-opacity="0.1" stroke-miterlimit="10" stroke-linecap="round" stroke-linejoin="round"/>
<path d="M199.118 68.2341C198.061 67.9322 197.154 67.4793 198.212 66.2716C199.722 64.3091 199.722 61.4409 197.154 62.0447C194.435 62.6486 188.241 61.2899 189.147 64.3091C190.809 70.0456 186.277 67.4793 184.766 68.536C188.543 74.5745 195.492 76.8389 201.837 74.4235C201.686 71.8572 202.291 69.1399 199.118 68.2341Z" fill="#155DE9" fill-opacity="0.1" stroke="#155DE9" stroke-opacity="0.1" stroke-miterlimit="10" stroke-linecap="round" stroke-linejoin="round"/>
<path d="M182.953 47.4016C182.046 46.4958 180.234 45.59 179.176 47.2506C177.967 48.9112 180.234 49.515 180.687 50.5717C182.5 54.9496 187.485 51.7794 189.751 54.6477C191.564 56.7611 193.83 56.4592 195.794 55.5534C197.758 54.6477 198.061 52.3833 198.061 50.2698C198.061 46.1939 195.039 44.9862 190.205 47.0996C187.938 47.8544 185.672 49.8169 182.953 47.4016Z" fill="#155DE9" fill-opacity="0.1" stroke="#155DE9" stroke-opacity="0.1" stroke-miterlimit="10" stroke-linecap="round" stroke-linejoin="round"/>
<path d="M127.659 49.9679C130.983 49.0621 135.062 52.5342 137.479 48.4583C138.688 46.3448 139.896 46.0429 142.162 47.4016C144.731 47.2506 146.393 45.741 146.695 43.0237C146.846 41.5141 145.788 40.7593 143.975 40.7593C137.781 40.9103 132.947 44.2314 127.961 47.4016C126.602 48.3073 126.753 50.2698 127.659 49.9679Z" fill="#155DE9" fill-opacity="0.1" stroke="#155DE9" stroke-opacity="0.1" stroke-miterlimit="10" stroke-linecap="round" stroke-linejoin="round"/>
<path d="M179.931 33.5132C179.176 34.419 177.514 33.6642 176.91 35.7776C180.989 37.7401 185.672 34.8719 189.298 38.042C190.356 38.9478 191.564 41.3632 192.924 38.9478C193.679 37.5891 193.528 35.6267 191.866 34.1171C188.694 31.2488 184.615 30.9469 180.838 29.8902C179.025 29.4373 176.608 28.8334 176.003 30.7959C175.097 33.9661 179.176 31.7017 179.931 33.5132Z" fill="#155DE9" fill-opacity="0.1" stroke="#155DE9" stroke-opacity="0.1" stroke-miterlimit="10" stroke-linecap="round" stroke-linejoin="round"/>
<path d="M212.413 40.7593C209.391 39.5516 205.916 41.2122 205.916 36.3815C205.916 34.5699 201.837 32.3055 198.363 32.7584C196.55 32.9094 195.794 33.3623 196.701 35.4757C198.967 40.7593 205.765 43.4766 212.413 40.7593Z" fill="#155DE9" fill-opacity="0.1" stroke="#155DE9" stroke-opacity="0.1" stroke-miterlimit="10" stroke-linecap="round" stroke-linejoin="round"/>
<path d="M154.551 41.0612C156.666 41.816 158.932 43.4766 161.349 41.816C162.558 40.9103 163.615 39.8536 164.824 38.7968C162.86 36.9853 160.896 37.7401 158.932 37.8911C157.119 37.8911 154.853 36.8343 153.644 39.2497C153.191 39.8536 153.795 40.7593 154.551 41.0612Z" fill="#155DE9" fill-opacity="0.1" stroke="#155DE9" stroke-opacity="0.1" stroke-miterlimit="10" stroke-linecap="round" stroke-linejoin="round"/>
<path d="M158.781 35.7776C159.687 35.7776 160.745 36.3815 161.651 36.2305C163.011 36.0795 166.335 36.8343 163.917 33.6642C162.407 31.7017 159.838 32.4565 157.874 33.3622C156.515 33.9661 154.551 33.2113 153.795 35.1738C155.457 37.2872 157.119 35.7776 158.781 35.7776Z" fill="#155DE9" fill-opacity="0.1" stroke="#155DE9" stroke-opacity="0.1" stroke-miterlimit="10" stroke-linecap="round" stroke-linejoin="round"/>
<path d="M822.608 297.845C822.91 293.769 818.227 294.977 817.472 291.655C815.357 295.429 819.587 297.09 818.831 299.807C820.493 299.958 821.853 299.354 822.608 297.845Z" fill="#155DE9" fill-opacity="0.1" stroke="#155DE9" stroke-opacity="0.1" stroke-miterlimit="10" stroke-linecap="round" stroke-linejoin="round"/>
<path d="M814.299 293.316C814.148 293.165 813.997 293.165 813.846 293.014" stroke="#155DE9" stroke-opacity="0.1" stroke-miterlimit="10" stroke-linecap="round" stroke-linejoin="round"/>
</g>
</g>
<defs>
<clipPath id="clip0_29_13598">
<rect width="1011" height="503" fill="white"/>
</clipPath>
</defs>
</svg>
