<svg width="1440" height="962" viewBox="0 0 1440 962" fill="none" xmlns="http://www.w3.org/2000/svg">
<g opacity="0.3">
<g opacity="0.3">
<mask id="mask0_29_13515" style="mask-type:luminance" maskUnits="userSpaceOnUse" x="0" y="79" width="1440" height="744">
<path d="M1439.04 79.8292H0.958721V822.022H1439.04V79.8292Z" fill="white"/>
</mask>
<g mask="url(#mask0_29_13515)">
<path d="M1439.04 -59.2578H0.958721V961.258H1439.04V-59.2578Z" stroke="#155DE9" stroke-miterlimit="10"/>
<path d="M0.958721 821.588H1439.04" stroke="#155DE9" stroke-miterlimit="10"/>
<path d="M0.958721 791.147H1439.04" stroke="#155DE9" stroke-miterlimit="10"/>
<path d="M0.958721 762.795H1439.04" stroke="#155DE9" stroke-miterlimit="10"/>
<path d="M0.958721 734.444H1439.04" stroke="#155DE9" stroke-miterlimit="10"/>
<path d="M0.958721 706.092H1439.04" stroke="#155DE9" stroke-miterlimit="10"/>
<path d="M0.958721 677.74H1439.04" stroke="#155DE9" stroke-miterlimit="10"/>
<path d="M0.958721 649.388H1439.04" stroke="#155DE9" stroke-miterlimit="10"/>
<path d="M0.958721 621.036H1439.04" stroke="#155DE9" stroke-miterlimit="10"/>
<path d="M0.958721 592.685H1439.04" stroke="#155DE9" stroke-miterlimit="10"/>
<path d="M0.958721 564.333H1439.04" stroke="#155DE9" stroke-miterlimit="10"/>
<path d="M0.958721 535.981H1439.04" stroke="#155DE9" stroke-miterlimit="10"/>
<path d="M0.958721 507.629H1439.04" stroke="#155DE9" stroke-miterlimit="10"/>
<path d="M0.958721 479.278H1439.04" stroke="#155DE9" stroke-miterlimit="10"/>
<path d="M0.958721 451.074H1439.04" stroke="#155DE9" stroke-miterlimit="10"/>
<path d="M0.958721 422.723H1439.04" stroke="#155DE9" stroke-miterlimit="10"/>
<path d="M0.958721 394.371H1439.04" stroke="#155DE9" stroke-miterlimit="10"/>
<path d="M0.958721 366.019H1439.04" stroke="#155DE9" stroke-miterlimit="10"/>
<path d="M0.958721 337.667H1439.04" stroke="#155DE9" stroke-miterlimit="10"/>
<path d="M0.958721 309.315H1439.04" stroke="#155DE9" stroke-miterlimit="10"/>
<path d="M0.958721 280.964H1439.04" stroke="#155DE9" stroke-miterlimit="10"/>
<path d="M0.958721 252.612H1439.04" stroke="#155DE9" stroke-miterlimit="10"/>
<path d="M0.958721 224.26H1439.04" stroke="#155DE9" stroke-miterlimit="10"/>
<path d="M0.958721 195.908H1439.04" stroke="#155DE9" stroke-miterlimit="10"/>
<path d="M0.958721 167.556H1439.04" stroke="#155DE9" stroke-miterlimit="10"/>
<path d="M0.958721 139.205H1439.04" stroke="#155DE9" stroke-miterlimit="10"/>
<path d="M0.958721 110.853H1439.04" stroke="#155DE9" stroke-miterlimit="10"/>
<path d="M0.958721 80.4122H1439.04" stroke="#155DE9" stroke-miterlimit="10"/>
<path d="M1404.72 -59.2578V961.258" stroke="#155DE9" stroke-miterlimit="10"/>
<path d="M1370.59 -59.2578V961.258" stroke="#155DE9" stroke-miterlimit="10"/>
<path d="M1336.27 -59.2578V961.258" stroke="#155DE9" stroke-miterlimit="10"/>
<path d="M1302.14 -59.2578V961.258" stroke="#155DE9" stroke-miterlimit="10"/>
<path d="M1267.81 -59.2578V961.258" stroke="#155DE9" stroke-miterlimit="10"/>
<path d="M1233.68 -59.2578V961.258" stroke="#155DE9" stroke-miterlimit="10"/>
<path d="M1199.36 -59.2578V961.258" stroke="#155DE9" stroke-miterlimit="10"/>
<path d="M1165.04 -59.2578V961.258" stroke="#155DE9" stroke-miterlimit="10"/>
<path d="M1130.91 -59.2578V961.258" stroke="#155DE9" stroke-miterlimit="10"/>
<path d="M1096.59 -59.2578V961.258" stroke="#155DE9" stroke-miterlimit="10"/>
<path d="M1062.46 -59.2578V961.258" stroke="#155DE9" stroke-miterlimit="10"/>
<path d="M1028.13 -59.2578V961.258" stroke="#155DE9" stroke-miterlimit="10"/>
<path d="M994.003 -59.2578V961.258" stroke="#155DE9" stroke-miterlimit="10"/>
<path d="M959.68 -59.2578V961.258" stroke="#155DE9" stroke-miterlimit="10"/>
<path d="M925.358 -59.2578V961.258" stroke="#155DE9" stroke-miterlimit="10"/>
<path d="M891.228 -59.2578V961.258" stroke="#155DE9" stroke-miterlimit="10"/>
<path d="M856.905 -59.2578V961.258" stroke="#155DE9" stroke-miterlimit="10"/>
<path d="M822.775 -59.2578V961.258" stroke="#155DE9" stroke-miterlimit="10"/>
<path d="M788.453 -59.2578V961.258" stroke="#155DE9" stroke-miterlimit="10"/>
<path d="M754.322 -59.2578V961.258" stroke="#155DE9" stroke-miterlimit="10"/>
<path d="M720 -59.2578V961.258" stroke="#155DE9" stroke-miterlimit="10"/>
<path d="M685.678 -59.2578V961.258" stroke="#155DE9" stroke-miterlimit="10"/>
<path d="M651.547 -59.2578V961.258" stroke="#155DE9" stroke-miterlimit="10"/>
<path d="M617.225 -59.2578V961.258" stroke="#155DE9" stroke-miterlimit="10"/>
<path d="M583.095 -59.2578V961.258" stroke="#155DE9" stroke-miterlimit="10"/>
<path d="M548.772 -59.2578V961.258" stroke="#155DE9" stroke-miterlimit="10"/>
<path d="M514.642 -59.2578V961.258" stroke="#155DE9" stroke-miterlimit="10"/>
<path d="M480.32 -59.2578V961.258" stroke="#155DE9" stroke-miterlimit="10"/>
<path d="M445.997 -59.2578V961.258" stroke="#155DE9" stroke-miterlimit="10"/>
<path d="M411.867 -59.2578V961.258" stroke="#155DE9" stroke-miterlimit="10"/>
<path d="M377.545 -59.2578V961.258" stroke="#155DE9" stroke-miterlimit="10"/>
<path d="M343.414 -59.2578V961.258" stroke="#155DE9" stroke-miterlimit="10"/>
<path d="M309.092 -59.2578V961.258" stroke="#155DE9" stroke-miterlimit="10"/>
<path d="M274.961 -59.2578V961.258" stroke="#155DE9" stroke-miterlimit="10"/>
<path d="M240.639 -59.2578V961.258" stroke="#155DE9" stroke-miterlimit="10"/>
<path d="M206.317 -59.2578V961.258" stroke="#155DE9" stroke-miterlimit="10"/>
<path d="M172.186 -59.2578V961.258" stroke="#155DE9" stroke-miterlimit="10"/>
<path d="M137.864 -59.2578V961.258" stroke="#155DE9" stroke-miterlimit="10"/>
<path d="M103.734 -59.2578V961.258" stroke="#155DE9" stroke-miterlimit="10"/>
<path d="M69.4115 -59.2578V961.258" stroke="#155DE9" stroke-miterlimit="10"/>
<path d="M35.281 -59.2578V961.258" stroke="#155DE9" stroke-miterlimit="10"/>
</g>
</g>
</g>
</svg>
