<svg width="18" height="18" viewBox="0 0 18 18" fill="none" xmlns="http://www.w3.org/2000/svg">
<path id="Vector" d="M2.05472 8.58351C2.05472 4.97776 4.97776 2.05472 8.58351 2.05472C12.1893 2.05472 15.1123 4.97776 15.1123 8.58351C15.1123 12.1893 12.1893 15.1123 8.58351 15.1123C4.97776 15.1123 2.05472 12.1893 2.05472 8.58351ZM8.58351 0.718359C4.23971 0.718359 0.718359 4.23971 0.718359 8.58351C0.718359 12.9273 4.23971 16.4487 8.58351 16.4487C10.5148 16.4487 12.2837 15.7525 13.6526 14.5975L16.0656 17.0105C16.3265 17.2715 16.7496 17.2715 17.0105 17.0105C17.2715 16.7496 17.2715 16.3265 17.0105 16.0656L14.5975 13.6526C15.7525 12.2837 16.4487 10.5148 16.4487 8.58351C16.4487 4.23971 12.9273 0.718359 8.58351 0.718359Z" fill="#03203F" stroke="#03203F" stroke-width="0.2" stroke-linecap="round"/>
</svg>
